/* XPM */
static char *donut[] = {
/* columns rows colors chars-per-pixel */
"64 49 167 2 ",
"   c black",
".  c #3F1D0F",
"X  c #3F250F",
"o  c #3F2B0F",
"O  c #3F2B12",
"+  c #7F2D0E",
"@  c #7F330E",
"#  c #7F3A0F",
"$  c #7F2E12",
"%  c #7F3413",
"&  c #7F3C14",
"*  c #7F3519",
"=  c #7F3D1B",
"-  c #7F3E20",
";  c #7F430F",
":  c #7F4A0F",
">  c #7F4313",
",  c #7F4B15",
"<  c #7F421A",
"1  c #7F4B1B",
"2  c #7F5214",
"3  c #7F531C",
"4  c #7F5A1A",
"5  c #7F4421",
"6  c #7F4C23",
"7  c #7F4D2A",
"8  c #7F5323",
"9  c #7F5A25",
"0  c #7F552A",
"q  c #7F5A2C",
"w  c #7F5D33",
"e  c #7F5E3B",
"r  c #7F6031",
"t  c #7F603E",
"y  c #7F6F3A",
"u  c #BF4E0F",
"i  c #BF530E",
"p  c #BF4F15",
"a  c #BF5516",
"s  c #BF5A14",
"d  c #BF551B",
"f  c #BF5C1C",
"g  c #BF670E",
"h  c #BF730F",
"j  c #BF6316",
"k  c #BF6D14",
"l  c #BF631C",
"z  c #BF6C1B",
"x  c #BF7315",
"c  c #BF7C15",
"v  c #BF731D",
"b  c #BF7C1C",
"n  c #BF5421",
"m  c #BF5D23",
"M  c #BF562A",
"N  c #BF5E2A",
"B  c #BF5D33",
"V  c #BF6424",
"C  c #BF6C24",
"Z  c #BF632C",
"A  c #BF6C2C",
"S  c #BF7323",
"D  c #BF7B23",
"F  c #BF742C",
"G  c #BF7C2B",
"H  c #BF6433",
"J  c #BF6C33",
"K  c #BF6B3A",
"L  c #BF7333",
"P  c #BF7D33",
"I  c #BF743C",
"U  c #BF7B3B",
"Y  c #BF6A4D",
"T  c #BF7341",
"R  c #BF7E42",
"E  c #BF724D",
"W  c #BF7E4D",
"Q  c #BF7B51",
"!  c #BF8512",
"~  c #BF8816",
"^  c #BF831C",
"/  c #BF8A1B",
"(  c #BF901D",
")  c #BFA016",
"_  c #BF8425",
"`  c #BF8B24",
"'  c #BF842B",
"]  c #BF8B2B",
"[  c #BF9224",
"{  c #BF9C24",
"}  c #BF932C",
"|  c #BF9A2D",
" . c #BF8433",
".. c #BF8B33",
"X. c #BF843A",
"o. c #BF8C3B",
"O. c #BF9334",
"+. c #BF9C35",
"@. c #BF943C",
"#. c #BF9C3C",
"$. c #BFA326",
"%. c #BFA12B",
"&. c #BFAD2C",
"*. c #BFA335",
"=. c #BFAB35",
"-. c #BFA33C",
";. c #BFAB3D",
":. c #BFB338",
">. c #BF8442",
",. c #BF8B43",
"<. c #BF8349",
"1. c #BF8B4A",
"2. c #BF9543",
"3. c #BF9C44",
"4. c #BF934B",
"5. c #BF9C4C",
"6. c #BF815D",
"7. c #BF9652",
"8. c #BF9D53",
"9. c #BFA344",
"0. c #BFAC44",
"q. c #BFA44B",
"w. c #BFAC4B",
"e. c #BFB245",
"r. c #BFB34C",
"t. c #BFB94D",
"y. c #BFA454",
"u. c #BFAC54",
"i. c #BFA65A",
"p. c #BFAC5C",
"a. c #BFB354",
"s. c #BFBB54",
"d. c #BFB55C",
"f. c #BFBB5C",
"g. c #BF8466",
"h. c #BF9360",
"j. c #BFAD61",
"k. c #BFAE6A",
"l. c #BFB563",
"z. c #BFBB63",
"x. c #BFB56D",
"c. c #BFBC6C",
"v. c #BFA978",
"b. c #BFB776",
"n. c #BFBE73",
"m. c #BFBB7A",
"M. c #FFBF6A",
"N. c #BFC24D",
"B. c #BFC05D",
"V. c #BFC253",
"C. c #BFC364",
"Z. c #BFC36C",
"A. c #BFC373",
"S. c #BFCA73",
"D. c #BFC47B",
"F. c #BFCA7A",
"G. c #FFCC75",
"H. c #BFC484",
"J. c #BFCC86",
"K. c #BFC48E",
"L. c #BFC98E",
"P. c #BFC693",
"I. c #BFCC94",
"U. c #FFCA87",
"Y. c #FFD399",
"T. c #FFD8A4",
"R. c #388C46",
/* pixels */
"R.R.R.R.R.R.R.R.R.R.R.R.R.R.R.R.R.R.R.R.R.R.R.R.R.R.R.R.R.R.R.R.R.R.R.R.R.R.R.R.R.R.R.R.R.R.R.R.R.R.R.R.R.R.R.R.R.R.R.R.R.R.R.R.",
"R.R.R.R.R.R.R.R.R.R.R.R.R.R.R.R.R.R.R.R.R.R.R.R.R.R.R.R.                  R.R.R.R.R.R.R.R.R.R.R.R.R.R.R.R.R.R.R.R.R.R.R.R.R.R.R.",
"R.R.R.R.R.R.R.R.R.R.R.R.R.R.R.R.R.R.R.R.R.R.R.R.        R 4.D  .D P 1.X.>.          R.R.R.R.R.R.R.R.R.R.R.R.R.R.R.R.R.R.R.R.R.R.",
"R.R.R.R.R.R.R.R.R.R.R.R.R.R.R.R.R.R.R.R.R.      U ' v  .#.O.#.#._ @.3.3...o.x ] ' ]       R.R.R.R.R.R.R.R.R.R.R.R.R.R.R.R.R.R.R.",
"R.R.R.R.R.R.R.R.R.R.R.R.R.R.R.R.R.R.      o.v ] ] ` 3.+.u.9.O.*.w.d.c.*.9.z.s.-.O.~ X...i.      R.R.R.R.R.R.R.R.R.R.R.R.R.R.R.R.",
"R.R.R.R.R.R.R.R.R.R.R.R.R.R.R.      G b q.] | -.#.a.l.A.A.+.*.A.n.d.r.w.a.*.w.s.z.} ' ] } ` } 3.    R.R.R.R.R.R.R.R.R.R.R.R.R.R.",
"R.R.R.R.R.R.R.R.R.R.R.R.R.     ...@.#.#.O.#.z.w.f.f.z.w.+._ 4.9.&.Z.C.D.z.d.Z.P.r.t.^ +.u.9.a._ y...    R.R.R.R.R.R.R.R.R.R.R.R.",
"R.R.R.R.R.R.R.R.R.R.R.R.  2.o.} 9.*.u.w.0.a.Z.c.d.q...o.@.]  .] 9.3.j.y.e.;.e.r.f.-.#.+.l.z.a.O.3.-.@.>.  R.R.R.R.R.R.R.R.R.R.R.",
"R.R.R.R.R.R.R.R.R.R.    P 4.' ^ +.w.l.a.z.s.O.@.p.D k b ] ` ! b b G O.#. .+.*.t.Z.a.w.w.u.n.@.} 0.u.*.} 3.  R.R.R.R.R.R.R.R.R.R.",
"R.R.R.R.R.R.R.R.R.  o.8. ._ =.w.D.r.s.| @...O.@.O.' ] } O._ @.#.@._ _ v ..../ +.9.y.s.z.a.a.Z.D.u.;.;.0.| 3.  R.R.R.R.R.R.R.R.R.",
"R.R.R.R.R.R.R.R.  P @.i./ l.d.=.A.F.r.8.@.@.+.u.q.^ ]  .x _  .b q.3._ ] O.' ..@.#.+.[ k.] ` a.c.0.#.9.t.*.+.4.  R.R.R.R.R.R.R.R.",
"R.R.R.R.R.R.R.  ,.#.#.p.-.c.n.b.F.w.q.3.] 2.#.-.O.k P o.z S l C S ' @.b  .,.D w.9.3.#.-.l.,.o.z.@.e.n.d.d.u.3.4.  R.R.R.R.R.R.R.",
"R.R.R.R.R.R.  X.@.#.9.3.@.b D | D.l.' 2.@.9.} O.b  .z C f a d i j x ' ' .. .3.-.w.+.-.*.+.] -.#.9.a.A.a.r.-.3.3.,.  R.R.R.R.R.R.",
"R.R.R.R.R.R.  P #.w.0.9.q.9.c.d.w.*.O.o.+._ 5.' D S > d > Z f l a l l  .G ` ..*.+.#.-.#.} -.#.-...#.c.=.s.z.j.3.5.U   R.R.R.R.R.",
"R.R.R.R.R.  I ] #.l.y.#.o.b ..c.d.O.k ' x _ z C f s # # p > ; , u > f F l z j  .' _ #.w.*.r.;.#.3.c -.c.c.0.9.w.3.7.  R.R.R.R.R.",
"R.R.R.R.  I o.9.u.=.@.v.^ 4.| u.;./ ' p C j C > 2 > & # # > 2 > & > ; , a 2 s l v G  .w.*.;.c.a.y.u.w.Y.t.B.i.3.3.2.1.  R.R.R.R.",
"R.R.R.R.  X.5.u.9.u.9.8.9.y.o.0.m.} q.G @.> > > @ # > # d U f a Z > # 2 3 s C C f >.P ] w.a.0.#.o./ w.G.Z.:.&.#.#.4.o.<.  R.R.R.",
"R.R.R.  U 2.3.-.' @.l.a.,.F U 9.O.-.#.D  .* . @ % + 3 m f u a C V > # a > # 1 a ; f ..3.0.*.0.l. .o.C.T.F.C.;.5.O.4.X.X.  R.R.R.",
"R.R.R.  P G @...-.0.s.w.4.@.4.5.c.r.} v P A = Z 1 d A V > > , , ; V & Z m 3 & # # l b j.0.3.u.q.o.d.F.Z.3.d.{ +.#.o.,.U <.  R.R.",
"R.R.  I F U O.p.y.u.f.Z.m.9.g q.q.9.#.' j m 1 > % a V < > , > ; # ; d n p n 8 8 > o.@.0.+.a.w.3.q.#.S.@.3.l.~ -.q.y.2.1.U   R.R.",
"R.R.  U X.2.#.' u.u.w.n.;.D.9.` z.*.-.3.] m % + # & ; > o 8 , > # & 3 2 a & > >  .} ;.l.n.c.+.-.a.z.-.3.( r.l.c...4.,.X.P   R.R.",
"R.R.  X.3.o.#.+.#.u.! 0.s.-.w.^ b ( w.[ #.o.% X $ & 3 & X % * & * > , ; # < >  .} -.u.*.=.t.F.f.L.A.P.-.=.b.2.h ,. .@.7.P m   R.",
"R.  K ,.o.q.5.-.3.5.{ c.c.| q.r.U.s.w.w...~ O.X.O * O = = % O & o * % O % * +.-.D.e.l./ r.J.S.c.%.9.3.i.m.c.x.3.G  .o.F I K   R.",
"R.  U o...@.-.;.#.D.m.w.w.z.p.-.Z.z.B.F.;.{ @.z V 5   =             - -   ] l.e.0.0.Z.0.l.s.t.f.a.5.3.#.} 3.G o.i.X. .I I T   R.",
"R.  ,.4.X.2.3.#.d.w.q.4.q.y.d.f.f.N.z.a.e.r...q.' J                     b ] | a.s.z.z.P.c.l.;.t.9.y.9.f.#.' 3.' C @.1.a 8 I   R.",
"R.  >.1.X.3.3.O.-.w.q.@.` X.9.H.:.s.F.C.z.c.9./ 9.2.^ ` 8.U O.+._ x _ *.w.^ | d.Z.F.-.a.C.0.q.O.0.a.w.9.9.] #.O. .F L 5 < R   R.",
"R.R.  7.o.o. .q.+.q.u.0.i. .O.#.u.u.' c.s.w.F.D.| [ *.[ O.w.| +.r.^ f.0.a.s.c.s.A.f.a.-.+. .@.9.u.w.+.+.' o.....' F N m 1 R   R.",
"R.R.  U ,.I g P 3.o.w.| l.5.@.] _ c ^ F.l.-.r.t.I.J.:.s.9.w.w.w.s.*.=.d.0.a.e.s.f.M.w.5.i. .=.#.l.@.3.3.] O._ O.F ,.8 , H h.  R.",
"R.R.  N J V s G ] 3.*.d.9.n.9.@.y.q.C.t.e.-.F.t.V.V.D.H.z.f.H.d.a.f.s.r.;.0.d.#.$.q.q.` 9.w.z.z.+. .D D G _ ..D 1.H P > R   R.R.",
"R.R.  N K I , G D G S ..0.q.w.Z.d.u.A.#.l.d.p.9.C.{ w.J.*.m.d.c.t.A.d.r.0.d.O.0.a.#.9.q.a.*.O.#...D q.' S ' ' ' F J * 8 Q   R.R.",
"R.R.  L V Z V A G G #. .u.-.d.w.0.0.d.-.l.0.| d. .f.u.d.@.q.J.e.l.;.d.u.-.w.*.c.H.O.u.-.w.9.#.#._ v 7.>.' o.F f >., < 3 E   R.R.",
"R.R.  L M 8 U A P f 2.] _ o.@.*.r.-.#.s.0.O.#.#.] O.] y.^ 3.-.] +.*.d.O.9.z.9.#.a.5.9.;.#.q._ w.q.o.S V l z , 0 # # N g.  R.R.R.",
"R.R.R.  0 1 H X.L X.F S v _ _ a.0.a.-.+.*.*.a.*.0.w.u.-.#.O.@.9.q.0.c.f.s.x.O.-...o.G ` } #.] ` S ] F l V A 1 A & # < 6.  R.R.R.",
"R.R.R.  9 = & 8 A L G P D ] O.O.O._ a.9.| u.9.3.9.u.w.r.r.z.d.e.e.0.r.O.9.-.-.@._ ..' D v 2.v v v C C l f L 6 > * 7 e   R.R.R.R.",
"R.R.R.  6 B 6 3 M m L P F _ ..D ` _ O.#.` ` u.*.q.+.9.#.w.#.-.[ z.y.*.O.} _ _ ^ v v P z C a l l V l 2 V F 3 % 0 8 6   R.R.R.R.R.",
"R.R.R.R.  R J 1 3 > C Z A S G ' ..' ' b 9.c #.D O...` +.O._ ] } } 9.w.| C ] b v z S f L 3 o.f F a > N A > # 0 <.0 U   R.R.R.R.R.",
"R.R.R.R.R.  B K m > & = Z L z G z 4.D S ' D ' _ ' ` ' b b _ ..b D _ _ z v D z z G U l A , N N , m = , 5 * % q 7 Y   R.R.R.R.R.R.",
"R.R.R.R.R.R.  B N 8 # 5 8 Z m & V A  .@.5.3.@.v ` b b S D D v D ..D C D C C C a 1 V < 1 8 > L & * % + % 1 0 K t   R.R.R.R.R.R.R.",
"R.R.R.R.R.R.R.  L Z & = % * = Z > 8 A Z f l  .S o.' C l D l ' v v P j G l A 2 a > V & % % 8 < % % & & q q w 0   R.R.R.R.R.R.R.R.",
"R.R.R.R.R.R.R.  y X.F 6 & , > * % & < < , a C ..l S f 2 f 1 l l f A P 2 , 1 1 3 m 1 & % % o % * , > n > H     R.R.R.R.R.R.R.R.R.",
"R.R.R.R.R.R.R.R.    V l L 4.> > , & $ # 6 C 1 3 G a 2 3 1 A > V l V 4 J N , m , Z $ O = = Z # , 8 = 6 r   R.R.R.R.R.R.R.R.R.R.R.",
"R.R.R.R.R.R.R.R.R.R.  K H J , > > , 1 ; : % , d ; J f 1 > 1 6 m < % f # Z 9 = O O O % % # 8 4 5 1 0 W   R.R.R.R.R.R.R.R.R.R.R.R.",
"R.R.R.R.R.R.R.R.R.R.R.    U T V V , 8 < < > & & & & % % $ % # @ % & = $ 5 $ @ % $ O * % 6 8 1 0 w     R.R.R.R.R.R.R.R.R.R.R.R.R.",
"R.R.R.R.R.R.R.R.R.R.R.R.R.    T J I 3 3 1 J & Z & , & 1 % > > > # + X % & L & 3 5 , < = q q 6     R.R.R.R.R.R.R.R.R.R.R.R.R.R.R.",
"R.R.R.R.R.R.R.R.R.R.R.R.R.R.R.    T U 9 1 Z 8 f 8 m m d # 6 < 1 = 8 = % = = 7 6 < < 1 7 7     R.R.R.R.R.R.R.R.R.R.R.R.R.R.R.R.R.",
"R.R.R.R.R.R.R.R.R.R.R.R.R.R.R.R.R.      K L T N q 8 > 6 9 q 1 < w & 7 0 H 6 0 6 6 0       R.R.R.R.R.R.R.R.R.R.R.R.R.R.R.R.R.R.R.",
"R.R.R.R.R.R.R.R.R.R.R.R.R.R.R.R.R.R.R.R.              w w I q q K 8 w e             R.R.R.R.R.R.R.R.R.R.R.R.R.R.R.R.R.R.R.R.R.R.",
"R.R.R.R.R.R.R.R.R.R.R.R.R.R.R.R.R.R.R.R.R.R.R.R.R.R.R.                  R.R.R.R.R.R.R.R.R.R.R.R.R.R.R.R.R.R.R.R.R.R.R.R.R.R.R.R.",
"R.R.R.R.R.R.R.R.R.R.R.R.R.R.R.R.R.R.R.R.R.R.R.R.R.R.R.R.R.R.R.R.R.R.R.R.R.R.R.R.R.R.R.R.R.R.R.R.R.R.R.R.R.R.R.R.R.R.R.R.R.R.R.R."
};
