/* XPM */
static char *donut2[] = {
/* columns rows colors chars-per-pixel */
"64 57 201 2 ",
"   c black",
".  c #001916",
"X  c #001C19",
"o  c #3F1B16",
"O  c #3F1D19",
"+  c #00211D",
"@  c #3F2315",
"#  c #3F231D",
"$  c #3F2B1C",
"%  c #3F2B13",
"&  c #3F331B",
"*  c #3F3B18",
"=  c #3F2621",
"-  c #3F2B24",
";  c #3F2E29",
":  c #3F3226",
">  c #3F332C",
",  c #3F3C26",
"<  c #3F3731",
"1  c #3F3B34",
"2  c #3F3E39",
"3  c #7F3F16",
"4  c #7F340E",
"5  c #7F3923",
"6  c #3F402A",
"7  c #3F4135",
"8  c #3F433C",
"9  c #3F483E",
"0  c #7F4D14",
"q  c #7F4E1C",
"w  c #7F4417",
"e  c #7F5414",
"r  c #7F5C15",
"t  c #7F531B",
"y  c #7F5C1F",
"u  c #7F440E",
"i  c #7F641B",
"p  c #7F6518",
"a  c #7F4B26",
"s  c #7F4529",
"d  c #7F5229",
"f  c #7F5B2B",
"g  c #7F5C20",
"h  c #7F4B3B",
"j  c #7F5E37",
"k  c #7F6222",
"l  c #7F652E",
"z  c #7F6A2F",
"x  c #7F6A34",
"c  c #7F6738",
"v  c #7F7336",
"b  c #7F733C",
"n  c #7F732A",
"m  c #3F4641",
"M  c #3F4B43",
"N  c #3F4E49",
"B  c #3F5146",
"V  c #3F524B",
"C  c #3F5A4F",
"Z  c #3F5551",
"A  c #7F4C44",
"S  c #7F4F49",
"D  c #7F4642",
"F  c #7F544C",
"G  c #7F554A",
"H  c #7F5651",
"J  c #7F5B54",
"K  c #7F5D5B",
"L  c #7F7446",
"P  c #7F6056",
"I  c #7F625B",
"U  c #7F6C5E",
"Y  c #7F7852",
"T  c #7F6661",
"R  c #7F6B63",
"E  c #7F6D6A",
"W  c #7F726B",
"Q  c #7F786F",
"!  c #7F7C73",
"~  c #7F7F79",
"^  c #7F7672",
"/  c #BF6A14",
"(  c #BF661B",
")  c #BF6C1E",
"_  c #BF6212",
"`  c #BF721B",
"'  c #BF7B1E",
"]  c #BF7416",
"[  c #BF5D2B",
"{  c #BF6D23",
"}  c #BF6A27",
"|  c #BF7424",
" . c #BF7B23",
".. c #BF7628",
"X. c #BF7C2B",
"o. c #BF6D38",
"O. c #BF7332",
"+. c #BF7A33",
"@. c #BF7D3C",
"#. c #BF743A",
"$. c #BF7B45",
"%. c #BF7F51",
"&. c #7F8354",
"*. c #7F8B51",
"=. c #7F827B",
"-. c #7F8176",
";. c #BF8326",
":. c #BF8B27",
">. c #BF842C",
",. c #BF8C2B",
"<. c #BF9324",
"1. c #BF952C",
"2. c #BF9B2C",
"3. c #BF9B27",
"4. c #BF8433",
"5. c #BF8B34",
"6. c #BF843B",
"7. c #BF8B3B",
"8. c #BF9334",
"9. c #BF9B32",
"0. c #BF943B",
"q. c #BF9C3B",
"w. c #BFA32E",
"e. c #BFA234",
"r. c #BFA43D",
"t. c #BFAC3E",
"y. c #BFAC35",
"u. c #BFB23B",
"i. c #BFB137",
"p. c #BF8242",
"a. c #BF8945",
"s. c #BF864A",
"d. c #BF9242",
"f. c #BF9D43",
"g. c #BF9249",
"h. c #BF9B4B",
"j. c #BF8B53",
"k. c #BF9D53",
"l. c #BF9857",
"z. c #BFA342",
"x. c #BFAB43",
"c. c #BFAA4A",
"v. c #BFB44C",
"b. c #BFB847",
"n. c #BFAB56",
"m. c #BFAD5B",
"M. c #BFA257",
"N. c #BFB454",
"B. c #BFBB5B",
"V. c #BFB457",
"C. c #BF9A60",
"Z. c #BF8A6A",
"A. c #BFA961",
"S. c #BFB564",
"D. c #BFBB64",
"F. c #BFBB6A",
"G. c #BFB16A",
"H. c #BFBB7C",
"J. c #BFB776",
"K. c #BFC256",
"L. c #BFC46D",
"P. c #BFC668",
"I. c #BFC373",
"U. c #BFC47C",
"Y. c #BFCA7B",
"T. c #BFC974",
"R. c #7F8B87",
"E. c #7F928E",
"W. c #7F9291",
"Q. c #7F9D9C",
"!. c #BF9F9A",
"~. c #BFBE89",
"^. c #BFAE95",
"/. c #BFAAA7",
"(. c #BFCC85",
"). c #BFCD8C",
"_. c #BFC487",
"`. c #BFD084",
"'. c #BFD28C",
"]. c #BFDA89",
"[. c #BFC997",
"{. c #BFD394",
"}. c #BFD49B",
"|. c #BFDB9C",
" X c #BFCEA4",
".X c #BFD3A3",
"XX c #BFDAA4",
"oX c #BFD5AD",
"OX c #BFDBAC",
"+X c #BFDDB3",
"@X c #BFDCBB",
"#X c #BFD4B2",
"$X c #BFE1A8",
"%X c #BFE3B4",
"&X c #BFE1BD",
"*X c #BFE3C4",
"=X c #BFE4CA",
"-X c #BFE9CC",
";X c #BFE8D4",
":X c #BFE9D8",
">X c None",
/* pixels */
">X>X>X>X>X>X>X>X>X>X>X>X>X>X>X>X>X>X>X>X>X>X>X>X>X>X>X>X>X>X>X>X>X>X>X>X>X>X>X>X>X>X>X>X>X>X>X>X>X>X>X>X>X>X>X>X>X>X>X>X>X>X>X>X",
">X>X>X>X>X>X>X>X>X>X>X>X>X>X>X>X>X>X>X>X>X>X>X>X>X>X>X>X>X>X>X>X>X>X>X>X>X>X>X>X>X>X>X>X>X>X>X>X>X>X>X>X>X>X>X>X>X>X>X>X>X>X>X>X",
">X>X>X>X>X>X>X>X>X>X>X>X>X>X>X>X>X>X>X>X>X>X>X>X>X                                >X>X>X>X>X>X>X>X>X>X>X>X>X>X>X>X>X>X>X>X>X>X>X",
">X>X>X>X>X>X>X>X>X>X>X>X>X>X>X>X>X>X>X>X>X>X      8 ; = - = = - > < m Z Z V m ; -     >X>X>X>X>X>X>X>X>X>X>X>X>X>X>X>X>X>X>X>X>X",
">X>X>X>X>X>X>X>X>X>X>X>X>X>X>X>X>X>X>X      - ; < < 2 m M V V V Z Z J J J J Z M < = 1   >X>X>X>X>X>X>X>X>X>X>X>X>X>X>X>X>X>X>X>X",
">X>X>X>X>X>X>X>X>X>X>X>X>X>X>X>X      ; ; < 2 8 M N M N N N M M m Z H J K I K C N 1 > ;       >X>X>X>X>X>X>X>X>X>X>X>X>X>X>X>X>X",
">X>X>X>X>X>X>X>X>X>X>X>X>X>X    = - 1 8 m N N M M m m 8 m 8 m M m m M N V V V H J H V ; 1 ; =   >X>X>X>X>X>X>X>X>X>X>X>X>X>X>X>X",
">X>X>X>X>X>X>X>X>X>X>X      = < > 8 N N M M 9 M m m m 8 1 2 2 1 1 2 2 1 8 8 8 M M F J J O : N -   >X>X>X>X>X>X>X>X>X>X>X>X>X>X>X",
">X>X>X>X>X>X>X>X>X>X  + = ; ; ; 1 m V V N M M 8 8 1 < < > > ; : ; ; > < 1 2 2 2 8 m N N Z > 2 M 2     >X>X>X>X>X>X>X>X>X>X>X>X>X",
">X>X>X>X>X>X>X>X>X  = : 1 2 M N B F B V M 9 8 7 > ; - - - - - - - = ; = : 1 < 1 2 2 8 M F V F N 2 1 ;   >X>X>X>X>X>X>X>X>X>X>X>X",
">X>X>X>X>X>X>X>X  + > 1 1 8 8 M M m M M M 9 1 > = - = = = ; - - - - = = = - > > < < < 1 m M M N N 1 ; =     >X>X>X>X>X>X>X>X>X>X",
">X>X>X>X>X>X>X  X - 7 8 8 8 8 8 8 8 8 9 8 7 < # = > m 8 2 M M M 8 8 1 < - = - - ; < 1 < 1 1 M M m N 2 ; + =   >X>X>X>X>X>X>X>X>X",
">X>X>X>X>X>X  + + 1 8 9 9 8 7 8 8 8 8 7 1 - O O h ~ E.E H I F J K J U T m ; = $ = # ; 1 1 8 m m m m M 8 < = =   >X>X>X>X>X>X>X>X",
">X>X>X>X>X  = X - 1 8 N 9 7 7 1 1 2 1 1 - # O O < ^ Q.=.H H F J I R Q W V N > - # O - > 1 1 2 8 8 2 8 m 2 ; X   >X>X>X>X>X>X>X>X",
">X>X>X>X>X  X = > 8 8 8 8 1 8 8 7 8 1 : # # . O # 8 !.=.N H J K P R ! U M 8 8 - O O - > < 1 8 8 m 8 1 1 < < X ;   >X>X>X>X>X>X>X",
">X>X>X>X  < O : 1 8 8 2 2 1 8 1 1 < - # O o . - - = ~ E = 1 m M G R -.P < > - = O . = < 1 2 8 8 m M m 8 1 < - = <   >X>X>X>X>X>X",
">X>X>X>X  X = 1 > ; ; 1 1 1 1 1 1 1 - # o o . !.- # O . o o . . # 1 T 1 ; = = = X O > 2 8 8 M 8 M N M 8 8 1 # X -   >X>X>X>X>X>X",
">X>X>X>X  # = ; > - - ; < 1 1 < 1 1 1 : # o X H o o a +.4.{ i t t * O X # # O O : : 2 2 2 2 8 8 8 M N M 8 1 X = O =   >X>X>X>X>X",
">X>X>X  + X # = - > : : : 1 1 8 7 9 9 N 8 O o . o e X.8.,.' | p p p i w . O . ; < > 8 8 2 2 2 8 8 8 M M m 2 O ; X Z   >X>X>X>X>X",
">X>X>X  X X O - 1 2 1 < 1 1 1 8 8 M B F N # o p.} ;.` ..) _ ' ` r e g y 0 . . = > 8 m 8 2 2 2 1 2 8 m M m 8 - = = X   >X>X>X>X>X",
">X>X>X  X X O = > 1 < < 1 1 1 8 8 A G G 8 - @ ` | | / / ( r / _ 0 u t 0 r . . = > N 9 8 8 2 2 1 1 < < 2 8 2 ; O # X C.  >X>X>X>X",
">X>X  Y X . X # - 1 1 1 1 1 7 8 8 8 A G F # O | ` ] ] ` | p } i e 0 e y l @ . = M F N 8 8 8 2 2 1 > > < < ; = = X + $.  >X>X>X>X",
">X>X  j . . . O # : 1 1 7 1 7 1 1 1 8 B G M @ % ) / ` 5.) i p i k w 4 e % X # 1 J G M M 8 8 8 7 1 1 > - = O O O X T O.  >X>X>X>X",
">X>X  L O . . . # = > 1 1 1 > - > < 1 8 M G M # 3 ` | { 0 u q d 5 - M F V B B B B N M 9 m 8 1 1 1 1 < > = O O . X = O.C.  >X>X>X",
">X>X  z 6 . . . # # - : > > - 8 1 7 1 1 8 8 B H ; $ * , h 3 & $ - 8 G F V N M M M m M M 8 8 8 1 2 2 < ; O o . . . - +.k.  >X>X>X",
">X>X  f # . . . O # # = - < 8 > < > < 1 1 1 8 7 8 8 9 M F B B V G B N S H M M M 9 8 8 8 8 8 8 8 8 2 < = o . o . . 7 a.0.  >X>X>X",
">X>X  z $ . . . . O O O O # = : > < 1 1 1 1 < > : - 9 B G M M 8 8 8 1 8 8 1 1 1 7 8 8 8 1 8 8 8 8 8 ; O o . . . ; @.6.n.  >X>X>X",
">X>X  b q $ . . O O O O # @ # # : : > 1 1 1 1 : ; M G M 8 1 > ; = - : > : 1 > 1 1 1 1 1 1 1 1 1 1 ; = O . o . . : O.O.I.  >X>X>X",
">X>X  b g y X . O O # # # O # # # = - : > > 1 1 > # : : > > : : ; - - : > : > > : : ; - : > < ; = # O o . O o . x 6.4.(.  >X>X>X",
">X>X  x k p & . O # = # # O O # # # # # - > > 1 # # = = = ; : > ; : - - : ; - ; : - - = = = - $ # O O o . . . o v +.d.'.  >X>X>X",
">X>X  *.k | k . X = - # # # = = # # # # # : 8 H C 7 : - : : > > < < : > - - - = - - = # # # # # O O O o . . . o 6.g._.@X  >X>X>X",
">X>X>X  n ..X.$ . - 8 8 8 2 2 > - $ # = > > 1 - 1 8 M M 8 2 2 2 1 < > - - - - = = - - - - # # # = # O o . . O O X.+.}.@X  >X>X>X",
">X>X>X  +.| X.{ X X ; < 1 M V F G P G G B A B I R R J 1 : : : > - - = - - = - - = - - - 1 < < < ; < # O o o X s | @.oX  >X>X>X>X",
">X>X>X  j.,.X.,.i g X . O > 8 8 J R W Q -.-.E I P P F F G M 9 8 1 > : : - - - - - - ; - > < < 8 ^ R 2 = O . = p.6.v @X  >X>X>X>X",
">X>X>X  l.5.>.:.X.( ..O . # : T Q U U R Q -.! ! Q U M 1 8 9 8 1 1 1 7 8 > = - = > 2 8 8 8 m D 8 T K m = o X 6.4.4.{.#X  >X>X>X>X",
">X>X>X  ~.7.:.1.5. .4.X.d X - Z Q Q Q Q W ! ! -.! =.^ F 8 1 1 8 1 1 1 8 9 N E U K T R E T J A 2 F < ; # . # 4.5.a..X[.  >X>X>X>X",
">X>X>X  j.S. .q.:.;.;.;.{ O X O G R ! Q ! Q Q ! Q Q Q R J F M A F F A F G H T =.W.E.R.W.E.E M 8 F = O O O a.7.7.).oX~.  >X>X>X>X",
">X>X>X>X  h.q.8.8.,.;.8. . .@ O # : J K T W Q ! W E W U S M 8 M H H H G J K R R./.W.^ J S 2 = O - O o & ..0.7.a.#XoX  >X>X>X>X>X",
">X>X>X>X  g.H.z.8.,.,.8.8. .{ } a # O = : 1 M G G A 8 > > - = = : > 8 8 8 M J R.W.m O O O = O # = @ n.4.0.g.g.#X#X[.  >X>X>X>X>X",
">X>X>X>X  p.J._.2.e.9.q.0.:.;.| >...{ #.# O O O # O O O o O . o o # = - - = 1 I I O O O # O = 5 f +.M.1.7.0.}.{. X  >X>X>X>X>X>X",
">X>X>X>X>X  M.~._.N.1.x.,.,.:.,.|  .] 5.7.d & # O O o o o o o o o O o o # O o # # = O $ 5 s d.5.7.m.q.7.f.h.OX.X~.  >X>X>X>X>X>X",
">X>X>X>X>X  g.H.[.).m.8.c.8.5.:.' ] ` 9.5.0.q.8.4.6.6.X.$ @ @ @ @ O O # # # # O ; 5 & 5.;.5.q.,.8.0.8.q.0..XOXJ.  >X>X>X>X>X>X>X",
">X>X>X>X>X>X  A.)..X(.U.N.2.,.e.1.;.' 8.1.1.,.2.9.,.8.8.8.:.,.:. .;.7.X.i * d 4. . .4.5.>.5.7.[ a 0.8.J.}.+X_.&.  >X>X>X>X>X>X>X",
">X>X>X>X>X>X  Y F.(.@X}.'.T.t.,.:.1.1.1.2.1.1.1.9.9.2.3.:.3.:.1.9.r.9.q.q.8.0.,.r.f.q.r.;.4.[ f D.'.XX+X@XU.l.  >X>X>X>X>X>X>X>X",
">X>X>X>X>X>X>X  6.S.@X*XXX}.{.B.y.t.e.1.8.1.2.e.r.r.r.e.z.3.9.2.w.q.8.3.q.1.r.q.z.q.3.z.7.8.B.oX&X=XOX{.'.l.  >X>X>X>X>X>X>X>X>X",
">X>X>X>X>X>X>X>X  p.U.=X&X|.XX}.{.}.T.b.u.t.w.<.3.2.2.b.w.3.9.3.w.w.e.3.,.8.8.1.8.r.z.F.D.XX|.&X=X*XOXY.M.  >X>X>X>X>X>X>X>X>X>X",
">X>X>X>X>X>X>X>X>X  d.H.@X=X&X;X+X+X%X|.|.'.Y.K.b.K.b.i.u.i.i.y.u.y.e.3.c.c.m.I.{.}.XXOXOX).T.OX+X(.U.f.  >X>X>X>X>X>X>X>X>X>X>X",
">X>X>X>X>X>X>X>X>X>X  6.m.{.&X;X*X*X-X-X-X%XOXXXXXOX|.$X$X].].].Y.P.P.Y.{.{.'.{.{.`..X}.).(.OX{.U.N.M.  >X>X>X>X>X>X>X>X>X>X>X>X",
">X>X>X>X>X>X>X>X>X>X>X  b 7.F.XX=X;X;X-X*X-X*X+X%X$X*X%X$X%X%X%X$X|.{.{.'.Y.(.(.I.N.B.L.(.L.I.L.0.l.  >X>X>X>X>X>X>X>X>X>X>X>X>X",
">X>X>X>X>X>X>X>X>X>X>X>X  &.O.7._.I.+X*X&X=X*X=X&X*X$XXXXX%X%X%X&XXX%XXXT.L.L.B.u.N.B.B.v.x.X.a.    >X>X>X>X>X>X>X>X>X>X>X>X>X>X",
">X>X>X>X>X>X>X>X>X>X>X>X>X    #.+.4.7.F.F.Y.(.}.XX+X@X*XG.OX*X@X%XOX(.V.v.t.x.x.r.r.z.r.q.f.j.  >X>X>X>X>X>X>X>X>X>X>X>X>X>X>X>X",
">X>X>X>X>X>X>X>X>X>X>X>X>X>X>X    b 6.#.X.X.+.7.5.4.z.m.G.OX*X[.Y.x.z.z.q.q.q.q.q.5.5.g.%.    >X>X>X>X>X>X>X>X>X>X>X>X>X>X>X>X>X",
">X>X>X>X>X>X>X>X>X>X>X>X>X>X>X>X>X    s.v #.O.O.6.+.+.+.7.7.m.c.z.0.0.5.0.7.6.h.7.a.      >X>X>X>X>X>X>X>X>X>X>X>X>X>X>X>X>X>X>X",
">X>X>X>X>X>X>X>X>X>X>X>X>X>X>X>X>X>X>X        L v x l x c o.o.p.k.$.g.p.$.Z.L       >X>X>X>X>X>X>X>X>X>X>X>X>X>X>X>X>X>X>X>X>X>X",
">X>X>X>X>X>X>X>X>X>X>X>X>X>X>X>X>X>X>X>X>X>X>X                                >X>X>X>X>X>X>X>X>X>X>X>X>X>X>X>X>X>X>X>X>X>X>X>X>X",
">X>X>X>X>X>X>X>X>X>X>X>X>X>X>X>X>X>X>X>X>X>X>X>X>X>X>X>X>X>X>X>X>X>X>X>X>X>X>X>X>X>X>X>X>X>X>X>X>X>X>X>X>X>X>X>X>X>X>X>X>X>X>X>X",
">X>X>X>X>X>X>X>X>X>X>X>X>X>X>X>X>X>X>X>X>X>X>X>X>X>X>X>X>X>X>X>X>X>X>X>X>X>X>X>X>X>X>X>X>X>X>X>X>X>X>X>X>X>X>X>X>X>X>X>X>X>X>X>X"
};
