/* XPM */
static char *donut3[] = {
/* columns rows colors chars-per-pixel */
"64 52 197 2 ",
"   c black",
".  c #3F2C17",
"X  c #3F3419",
"o  c #3F351A",
"O  c #3F3824",
"+  c #3F3E33",
"@  c #7F3B1B",
"#  c #7F3916",
"$  c #7F3D27",
"%  c #3F4332",
"&  c #7F441E",
"*  c #7F4A1A",
"=  c #7F551D",
"-  c #7F4424",
";  c #7F4B24",
":  c #7F442B",
">  c #7F4D2C",
",  c #7F542C",
"<  c #7F5A2B",
"1  c #7F5725",
"2  c #7F4C33",
"3  c #7F4D3B",
"4  c #7F4637",
"5  c #7F5433",
"6  c #7F5C34",
"7  c #7F553B",
"8  c #7F5C3B",
"9  c #7F612C",
"0  c #7F6333",
"q  c #7F633B",
"w  c #7F693B",
"e  c #7F6A35",
"r  c #7F7536",
"t  c #7F4E45",
"y  c #7F5643",
"u  c #7F5C43",
"i  c #7F5C4C",
"p  c #7F544C",
"a  c #7F5D54",
"s  c #7F6443",
"d  c #7F6B43",
"f  c #7F644B",
"g  c #7F6C4B",
"h  c #7F724C",
"j  c #7F7548",
"k  c #7F6354",
"l  c #7F6C53",
"z  c #7F6C5B",
"x  c #7F7354",
"c  c #7F7955",
"v  c #7F735B",
"b  c #7F7D5A",
"n  c #7F6761",
"m  c #7F7362",
"M  c #7F7C64",
"N  c #7F7C6A",
"B  c #7F7669",
"V  c #7F7E7E",
"C  c #BF6E3B",
"Z  c #BF6737",
"A  c #BF7B3D",
"S  c #BF7537",
"D  c #BF712A",
"F  c #BF6C46",
"G  c #BF7443",
"H  c #BF7B43",
"J  c #BF7A4B",
"K  c #BF734B",
"L  c #BF7354",
"P  c #BF7C54",
"I  c #BF7D5C",
"U  c #BF7D62",
"Y  c #BF7E69",
"T  c #7F855C",
"R  c #7F8368",
"E  c #7F8576",
"W  c #BF843B",
"Q  c #BF8837",
"!  c #BF943F",
"~  c #BF8443",
"^  c #BF844C",
"/  c #BF8B4D",
"(  c #BF8A43",
")  c #BF934C",
"_  c #BF9747",
"`  c #BF8554",
"'  c #BF8B55",
"]  c #BF835C",
"[  c #BF8A5C",
"{  c #BF9455",
"}  c #BF9D54",
"|  c #BF935C",
" . c #BF9C5B",
".. c #BFA64C",
"X. c #BFA355",
"o. c #BFAB54",
"O. c #BFA45D",
"+. c #BFAB5B",
"@. c #BFB15D",
"#. c #BF8463",
"$. c #BF8C65",
"%. c #BF8B6C",
"&. c #BF846C",
"*. c #BF9463",
"=. c #BF9C64",
"-. c #BF936C",
";. c #BF9B6B",
":. c #BF8C73",
">. c #BF8D7C",
",. c #BF8676",
"<. c #BF9473",
"1. c #BF9D73",
"2. c #BF947B",
"3. c #BF9D7B",
"4. c #BFA364",
"5. c #BFAB63",
"6. c #BFA56C",
"7. c #BFAC6C",
"8. c #BFB46B",
"9. c #BFB668",
"0. c #BFA473",
"q. c #BFAC73",
"w. c #BFA37B",
"e. c #BFAB7D",
"r. c #BFB675",
"t. c #BFB973",
"y. c #BFB37B",
"u. c #BFBB7B",
"i. c #7F7F87",
"p. c #7F928C",
"a. c #BF8C83",
"s. c #BF9385",
"d. c #BF9B83",
"f. c #BF9D8C",
"g. c #BF958C",
"h. c #BF9D93",
"j. c #BF9B99",
"k. c #BFA384",
"l. c #BFAD84",
"z. c #BFA38B",
"x. c #BFAB8C",
"c. c #BFB385",
"v. c #BFB984",
"b. c #BFB48B",
"n. c #BFBB8B",
"m. c #BFA494",
"M. c #BFAC94",
"N. c #BFA59B",
"B. c #BFAC9C",
"V. c #BFB394",
"C. c #BFBC94",
"Z. c #BFB49C",
"A. c #BFBC9C",
"S. c #BFA5A5",
"D. c #BFADA3",
"F. c #BFACAB",
"G. c #BFB3A4",
"H. c #BFBBA4",
"J. c #BFB4AC",
"K. c #BFBCAD",
"L. c #BFACB2",
"P. c #BFB5B3",
"I. c #BFBDB3",
"U. c #BFBCBA",
"Y. c #BFC086",
"T. c #BFC299",
"R. c #BFC3AE",
"E. c #BFC7A9",
"W. c #BFC3B4",
"Q. c #BFCAB6",
"!. c #BFC3BB",
"~. c #BFCABC",
"^. c #BFD1BD",
"/. c #BFD3B7",
"(. c #BFBDC4",
"). c #BFC4C2",
"_. c #BFCBC4",
"`. c #BFCDCA",
"'. c #BFC5CB",
"]. c #BFD2C4",
"[. c #BFD2CB",
"{. c #BFD8CB",
"}. c #BFCDD2",
"|. c #BFD4D3",
" X c #BFDAD5",
".X c #BFD6DB",
"XX c #BFDCDB",
"oX c #BFE1DD",
"OX c #BFE0D5",
"+X c #BFDDE1",
"@X c #BFE3E4",
"#X c #BFE9E7",
"$X c #BFE7E9",
"%X c #BFEBEC",
"&X c #BFEFF0",
"*X c #FFEFED",
"=X c None",
/* pixels */
"=X=X=X=X=X=X=X=X=X=X=X=X=X=X=X=X=X=X=X=X=X=X=X=X=X=X=X=X=X=X=X=X=X=X=X=X=X=X=X=X=X=X=X=X=X=X=X=X=X=X=X=X=X=X=X=X=X=X=X=X=X=X=X=X",
"=X=X=X=X=X=X=X=X=X=X=X=X=X=X=X=X=X=X=X=X=X=X      =X=X=X=X=X=X=X=X=X=X=X=X=X=X=X=X=X=X=X=X=X=X=X=X=X=X=X=X=X=X=X=X=X=X=X=X=X=X=X",
"=X=X=X=X=X=X=X=X=X=X=X=X=X=X=X=X=X=X=X=X=X  2.H. X  =X=X=X                      =X=X=X=X=X=X=X=X=X=X=X=X=X=X=X=X=X=X=X=X=X=X=X=X",
"=X=X=X=X=X=X=X=X=X=X=X=X=X=X=X=X=X=X=X=X  v I.h.J.U.      r <.*.G.l.e.XX@X`.Z.x.  =X=X=X=X=X=X=X=X=X=X=X=X=X=X=X=X=X=X=X=X=X=X=X",
"=X=X=X=X=X=X=X=X=X=X=X=X=X=X=X=X=X=X=X=X=X  T !.XX`.'.(.k.Q ~ Q.Q.( ( ;.z.-.m.2.f.    =X=X=X=X=X=X=X=X=X=X=X=X=X=X=X=X=X=X=X=X=X",
"=X=X=X=X=X=X=X=X=X=X=X=X=X=X=X=X=X=X=X    P.B.] U.R.I.N.F.`.W { { { Q.e.#.U.J.g.I.H.3.          =X=X=X=X=X=X=X=X=X=X=X=X=X=X=X=X",
"=X=X=X=X=X=X=X=X=X=X=X=X=X=X=X=X=X    Q.K.L.U i $ P.U.W.B.).^ ) } { H.%X[.>.j.h.D.%.^ ~ z.g.F.F.  =X=X=X=X=X=X=X=X=X=X=X=X=X=X=X",
"=X=X=X=X=X=X=X=X=X=X=X=X=X=X=X    _.e.K.H. XQ D #.d ] w h | { X. .7.;.#.}.!.] %.m.%.C.Z.|.K.D.p.D.  =X=X=X=X=X=X=X=X=X=X=X=X=X=X",
"=X=X=X=X=X=X=X=X=X=X=X=X=X=X  G.`.`.d.J V.6.| =.` 1.k.D.| *.=.0.m.U.N.!.|.(.XX!.`.w.[.W.Z.$.%.M.P.).    =X=X=X=X=X=X=X=X=X=X=X=X",
"=X=X=X=X=X=X=X=X=X=X=X=X=X  <.XXI.I.<.N.V.{ B.XXoXB.`.A.{ `.z.[.M.F.h.:.J.H.~.Q.C.!.S.P.`.-.Q.f.B.N.K.J.    =X=X=X=X=X=X=X=X=X=X",
"=X=X=X=X=X=X=X=X=X        *.l 0 d h g K.A %.M.|.XXI.B.`.W.!.@X$XQ.z.&.:.f.I.[ { |.K.).#XG.a.Y Z.<.-.^ W.V.*.  =X=X=X=X=X=X=X=X=X",
"=X=X=X=X=X=X=X=X  p.b 3.D.XXJ.N 8 ,.g.[ [ R.J 0.] I [ #.}.U.B.W.i 1 1 5 M.m.G.U.%.N._.XX] N.N.c.G.3.[.K.U.1.q.  =X=X=X=X=X=X=X=X",
"=X=X=X=X=X=X=X  f.[.s.P.F.M.W.K.XXQ.4.q.C.{ *.{ <.0.*.e.w 7 0 ; #.g & w ^.].I.B.7 j J 9 %.P l.=.C.n.!.3.~. .4.y.  =X=X=X=X=X=X=X",
"=X=X=X=X=X=X=X  ,.[.D.G.I.w.4.O.O.O.+.5.5.+.7.6.y.q.b.V.<.F L <.0 , 9 w ;.).f.J.a.z.- m.!.0.y.4.7.q.A.Q.].A.H.Z.0.  =X=X=X=X=X=X",
"=X=X=X=X=X=X=X  g 2.&.&.).=.O.4.v.5.7.e.q.Q.c.v.n.t.H.A./ ~ H ' ( V.$.Z z.,.b f $X).C.M.m.c.E J.!.=.T.q.]._. .+XE.n.  =X=X=X=X=X",
"=X=X=X=X=X=X  z.v H.k.6.r.Q.5.q.O.6.V.Q.O. .r.O.! ( ) 0.;.W.]._.H.I.H.d.v 1 3 m.@X@X_.C 3.c :.(.s.f.) 4.6.I.@X0.} r.Q.  =X=X=X=X",
"=X=X=X=X=X=X  <.~.e.c.6.4.V.R./ x.G.|._.~.S w.XX|.7.{ ~.].Q.V.w.' K.^ G A C 9 s |.`.[ w.[ [ N.>.$.d ~ b.W.XXXX2.6.4.W.M.  =X=X=X",
"=X=X=X=X=X  B.I.e.X.K.$XP.Z./ W.$XG. XD.z.@X^._.|.0.S Q ' ` H =.;.=.~ ~ ~ C A D , * = [ J N > - f !.D.G.h `.U.] 0.l.T.0.  =X=X=X",
"=X=X=X=X  W.;.^.H.k.$X X#XM.*.H =.W.|.,.J.|.[.~.V.G.k.M.H.' A.x.%.H.H P J Z C < 9 0 ' Q.`.G.+X$XP.B.Z.d.U P #.#.%.].H.q.0.  =X=X",
"=X=X=X  XX].|.XX@X$X%. X_.:.XX@X).( ] s. X].$X_.H.R.0.d.x.w.' J F < $.P 6 5 < < e C.'.W.A.W.!.R.G.E.q.R.W.V - k R.x.XXW.R.  =X=X",
"=X=X=X  |.].J.$X@X.X- 9 q W.~.!.XX!.%X%X*X0.D ~ k.=.' ' | $.K C , q ; & - @ a.L I.z.M.!.OXU.!.!.XX XB.W.|.N.m.D.G.[.I.W.c.  =X=X",
"=X=X  `.Q.w.Z.S.!.<.!.XXg m.H.).[.K.s. X%X$XP.3.3.^ [ Z 8 7 d 7 k : ; X X X @ , ;.|.[.w.G.B.U.z._.XX[.oXE @XW.U.R.!.M.K.w.<.  =X",
"=X=X  ].) ^ 9 ; > J _.^ H.B.[.XX).G.@X$Xk XXXX`.d Z ] < , # , m.%X|.%.. . X $ k.I N.&.: J =.A 6 q ~.`.).b 1.Z.[.S.l 6.Q.I.$.  =X",
"=X=X  Q.( / 0 1 z.$XH.X.b.U.m.!.N.!.M.%X%XF.+X).,.u {.q 5 . . 3.w , a . X - i 2 ; h J !.I s c i i a.XXI.` Z.:.B.F.W.+XU.x.]   =X",
"=X  Q.A.y.} c.) 6./.7.y.l.OXI %.).#.9 `.$X(.#XXX@ ; - 5 - O . * : . o O % Q.O . s.M.@X!.&.0 ] a.XX@X`., u q t @X%X@X).w.3.h   =X",
"=X  b.q.T.E.X.} ^.u.r.oX@X XN. X%.2 R Q.@X).[.$X`.: ; O O N D.].2 3 y 7 *X*XXX@XU.$.`.).Q._.[..X%X$XW..XL # y oX$X$X$Xl.w.h   =X",
"=X  w.y.T.n.5.o.T.5.|.c.J.).~.%.=.V.$X&X!.K.U..XD.z.u t |.J.M.3.l.*X*X*X*X*X0.`..XB.[._.|.k.Z._.%XoXD.J.i Y f.3.oXXXXX2.1.#.  =X",
"=X  4.5.9.u.+.9.@.8.}.J.U.D.I.#.W.w.|.).J._.{.$Xj.N.XX#X<.J <.] K *X*X>.[.[.I.XXM.I._.|.I.Z.z.f.I x q 2. XS.m.x ;.z.E %.] h   =X",
"=X  0.o...9.T.u.+._ |._._.+XXX|.R.[.oXM.$X*X$XI.d.J.U.U.g I I &._.m.K.oXD.B.g $X`. XH.<.XXL.s.Y l 7 E 8 [._.J.V.& & ] G.L R   =X",
"=X  k.X.9.9.{.OX9.o.Q =.|.[.!.#X$Xc.x.U.%X%X*X%X3.-.j ] s.I.).~. X X].[.F.`.d.oXD.f ).s.D.[.l K.P q #.!.B.|.W.T.3.I.M.] ,.  =X=X",
"=X  d.) o.9.8.@.@._ o.! D *.|.|.}.I.0.M.W.U.B.).5 O + z $XQ._.b.A.!.@X%X%X.X$Xa 4 + K.m `.@XXX].c.H.c.R.~.Q.V.~.z.m.P &.h   =X=X",
"=X=X  / E.8.Y.t.9.o.....X.C.C.|._.%X+Xw G.).|.|.P.$X.XH.w.^. X%X$X|.|.B.!._.!.W.R.oX!.[.|.+XW.~./ _ ) ) /.V.A.!.e ` ] s   =X=X=X",
"=X=X  ^ n.t.u.8.r.t.+.9.t.~.|.P.@X$X$Xh..X@X|.m.XX|.oX+XXXB. X#X|.`.XXP.% K.U.P.!.`. XN.G.G.W.Z.Z.6.5.l.w.B.l.*.K L c g   =X=X=X",
"=X=X  [.=.+.5.u.8.v.n.t.7.R.H.)..X+X_.u [.K.2.#XD.@X%XXXoXU d.2.z.%X%X%X@XN q [ g i $X!.XX7 > 8 $.{ M.) W n.S J d q 7 x   =X=X=X",
"=X=X   .V.=.+.t.8.8.n.T.r.Z.W.j 2.z z O 7 V.`.a.i I.XX$X@X!.|.`.`.+X$X$X|.5 O ; O $ [._.|.J.; x.z.' A.q.=.^ { d.2 7 s   =X=X=X=X",
"=X=X=X  r $.6.t...4.r.u.R.A.A.< 0 l - #.B.*.] z.Y k M M N z.@X@X@X] 3.<.5 $ z : x g o > E N.).M.m.' ~ ~ #.G Z.x f s g   =X=X=X=X",
"=X=X=X  ` g | 6.y.7.7.n.C.n.x.| w.;.T.A.V. XR.Q.=.V.I 7 &.d.oX|.m.2 ; & w s.K.M.w.$.2.5 # G l.d <.] J ` L J q w s d   =X=X=X=X=X",
"=X=X=X=X  v v ^ { e.} 0.) | ;.w.4.b.y.c.u.Q.n.`.~.G.[.H.B.A.$XI.k.j.k.oX|.W.l.c.e. .`.m.P F ^ 1.- C ] d 8 9 h h f x   =X=X=X=X=X",
"=X=X=X=X=X  M h G H { ( ( W ~ W.;. .e.4.A.A.c.;.m.oX[.w.*.g 3.T 6 ` [.W.e.4.l.7.y.Z.*.*.' <.J 0 6 8 8 5 P P j f g   =X=X=X=X=X=X",
"=X=X=X=X=X=X  x I w G C e C 2.M.m.!.=.y.x.y.;.| -.O.c ;.k.[ d 8 e G w.;.^ Q w.*./ ^ ] ] P w d < : , 7 6 5 q 5 f   =X=X=X=X=X=X=X",
"=X=X=X=X=X=X=X  x 2.d A d w <.D.H.s.] r *.I J U 3.(.[.I <.K %.I.R w j P e Z A H D 6 5 6 , , : & , 6 w d g x N   =X=X=X=X=X=X=X=X",
"=X=X=X=X=X=X=X=X  I g d q f f.>.g.D.,.v v <.E f.B.j.S.m >.u M P.(.S.i P.s ; 6 0 8 , - , q w > 0 w 6 6 5 f.R   =X=X=X=X=X=X=X=X=X",
"=X=X=X=X=X=X=X=X=X  x h g g I s h.7 a.R s.U.p.p.i.s.3 ,.%.2.N.N 3 L.S.n m.3 u 2 , , h g >.G., q q 8 s h f   =X=X=X=X=X=X=X=X=X=X",
"=X=X=X=X=X=X=X=X=X=X  m s 7 x s B i 2 y u a p a a p i.t 2 3 : $ y : 4 t 3 2 N 2.%.M.G.c , 7 5 8 5 > #.    =X=X=X=X=X=X=X=X=X=X=X",
"=X=X=X=X=X=X=X=X=X=X=X    x u l f z m 7 u 2 2 7 u i : 3 2 5 . - M $ E i x 2 7 h 5 q w - & , N.s 8     =X=X=X=X=X=X=X=X=X=X=X=X=X",
"=X=X=X=X=X=X=X=X=X=X=X=X=X  x h R B n a s.s s g d v u ; 5 d B.&.k l E f.u q q > > 5 6 w d f 8 g   =X=X=X=X=X=X=X=X=X=X=X=X=X=X=X",
"=X=X=X=X=X=X=X=X=X=X=X=X=X=X    d 5 N a g l z 7 u s 7 6 5 #.g x 8 5 g v 8 s 6 2 < 8 0 h 7       =X=X=X=X=X=X=X=X=X=X=X=X=X=X=X=X",
"=X=X=X=X=X=X=X=X=X=X=X=X=X=X=X=X      s R M R 8 8 q , 2 , f , g x s 8 u s 7 5 5 5 s       =X=X=X=X=X=X=X=X=X=X=X=X=X=X=X=X=X=X=X",
"=X=X=X=X=X=X=X=X=X=X=X=X=X=X=X=X=X=X=X          h s f d s R c 7 3 5 5 5 u 8 7       =X=X=X=X=X=X=X=X=X=X=X=X=X=X=X=X=X=X=X=X=X=X",
"=X=X=X=X=X=X=X=X=X=X=X=X=X=X=X=X=X=X=X=X=X=X=X=X      l l z f g l l l         =X=X=X=X=X=X=X=X=X=X=X=X=X=X=X=X=X=X=X=X=X=X=X=X=X",
"=X=X=X=X=X=X=X=X=X=X=X=X=X=X=X=X=X=X=X=X=X=X=X=X=X=X=X                =X=X=X=X=X=X=X=X=X=X=X=X=X=X=X=X=X=X=X=X=X=X=X=X=X=X=X=X=X",
"=X=X=X=X=X=X=X=X=X=X=X=X=X=X=X=X=X=X=X=X=X=X=X=X=X=X=X=X=X=X=X=X=X=X=X=X=X=X=X=X=X=X=X=X=X=X=X=X=X=X=X=X=X=X=X=X=X=X=X=X=X=X=X=X"
};
