/* XPM */
static char *donut1[] = {
/* columns rows colors chars-per-pixel */
"64 45 201 2 ",
"   c black",
".  c #000F0F",
"X  c #3F180F",
"o  c #3F1B11",
"O  c #3F2211",
"+  c #3F250F",
"@  c #7F1F16",
"#  c #7F2212",
"$  c #7F2B14",
"%  c #7F3413",
"&  c #7F3B14",
"*  c #7F3218",
"=  c #7F3E1C",
"-  c #7F220F",
";  c #7F3925",
":  c #7F3230",
">  c #7F441B",
",  c #7F4718",
"<  c #7F4B23",
"1  c #7F4427",
"2  c #7F5829",
"3  c #7F5232",
"4  c #7F673E",
"5  c #7F6D49",
"6  c #BF3D14",
"7  c #BF4514",
"8  c #BF4B14",
"9  c #BF4D1B",
"0  c #BF4319",
"q  c #BF5414",
"w  c #BF5C15",
"e  c #BF541C",
"r  c #BF5B1B",
"t  c #BF6114",
"y  c #BF631C",
"u  c #BF6C1D",
"i  c #BF751A",
"p  c #BF4C22",
"a  c #BF4027",
"s  c #BF5523",
"d  c #BF5D23",
"f  c #BF592B",
"g  c #BF5E33",
"h  c #BF6423",
"j  c #BF6C26",
"k  c #BF652C",
"l  c #BF6C2C",
"z  c #BF7425",
"x  c #BF7B25",
"c  c #BF732B",
"v  c #BF7B2C",
"b  c #BF6533",
"n  c #BF6C3B",
"m  c #BF6A34",
"M  c #BF7432",
"N  c #BF7B33",
"B  c #BF733B",
"V  c #BF7B3D",
"C  c #BF304F",
"Z  c #BF3C61",
"A  c #BF6F44",
"S  c #BF7441",
"D  c #BF7C44",
"F  c #BF7C4B",
"G  c #BF7454",
"H  c #BF7C59",
"J  c #BF4467",
"K  c #BF4E74",
"L  c #BF547C",
"P  c #BF5979",
"I  c #BF7167",
"U  c #BF841D",
"Y  c #BF8924",
"T  c #BF8C2B",
"R  c #BF8429",
"E  c #BF942A",
"W  c #BF8634",
"Q  c #BF8838",
"!  c #BF923B",
"~  c #BF9C3C",
"^  c #BF9834",
"/  c #BFA035",
"(  c #BFA038",
")  c #BF844B",
"_  c #BF8A4D",
"`  c #BF8644",
"'  c #BF9444",
"]  c #BF984F",
"[  c #BF8B5C",
"{  c #BF8557",
"}  c #BF9354",
"|  c #BF965A",
" . c #BFA64B",
".. c #BFA646",
"X. c #BFB64D",
"o. c #BFAE55",
"O. c #BFA85A",
"+. c #BFB556",
"@. c #BFB85A",
"#. c #BF8C62",
"$. c #BF8869",
"%. c #BF9463",
"&. c #BF986B",
"*. c #BF8D7A",
"=. c #BF8C72",
"-. c #BF9A71",
";. c #BF9775",
":. c #BFAC68",
">. c #BFBA65",
",. c #BFBC6C",
"<. c #BFB566",
"1. c #BFA979",
"2. c #BFB773",
"3. c #BFC46D",
"4. c #BFC365",
"5. c #BFC679",
"6. c #BF5781",
"7. c #BF5A83",
"8. c #BF668C",
"9. c #BF6C98",
"0. c #BF7698",
"q. c #BF78A2",
"w. c #BF9B84",
"e. c #BF9C8C",
"r. c #BF9687",
"t. c #BF9492",
"y. c #BF9F9C",
"u. c #BFA988",
"i. c #BFBE88",
"p. c #BFA394",
"a. c #BFAD93",
"s. c #BFAB9D",
"d. c #BFA79C",
"f. c #BFB498",
"g. c #BF87AC",
"h. c #BF91B5",
"j. c #BF95BB",
"k. c #BF9BBC",
"l. c #BF97AB",
"z. c #BFADA3",
"x. c #BFAAA6",
"c. c #BFB2A4",
"v. c #BFB2AB",
"b. c #BFBAAD",
"n. c #BFBCA6",
"m. c #BFB4B3",
"M. c #BFBBBC",
"N. c #BFBAB7",
"B. c #BFA0BE",
"V. c #BFC788",
"C. c #BFD289",
"Z. c #BFD298",
"A. c #BFCA99",
"S. c #BFC7A7",
"D. c #BFDAAC",
"F. c #BFD7A5",
"G. c #BFC3B6",
"H. c #BFC2BD",
"J. c #BFD7B8",
"K. c #BFE1BA",
"L. c #BFE0AB",
"P. c #BFA3C3",
"I. c #BFACC8",
"U. c #BFBEC1",
"Y. c #BFB5CD",
"T. c #FFA5C6",
"R. c #FFADCB",
"E. c #FFA7C8",
"W. c #FFBCD5",
"Q. c #FFB1CC",
"!. c #BFC4C4",
"~. c #BFCAC4",
"^. c #BFC3CA",
"/. c #BFCBCB",
"(. c #BFD7C7",
"). c #BFCCD4",
"_. c #BFCAD4",
"`. c #BFD2D4",
"'. c #BFD4DB",
"]. c #BFD9DD",
"[. c #BFDDD4",
"{. c #BFE5CA",
"}. c #BFE4DA",
"|. c #BFDCE2",
" X c #BFE1E5",
".X c #BFE8EA",
"XX c #FFC4D9",
"oX c #FFCCDD",
"OX c #FFC3D7",
"+X c #FFD2DE",
"@X c #FFE3D0",
"#X c #FFCFE0",
"$X c #FFD4E2",
"%X c #FFDCE6",
"&X c #FFDEE8",
"*X c #FFE1E7",
"=X c #FFE3EA",
"-X c #FFE9EE",
";X c #FFEEF1",
":X c #FFF1F3",
">X c #388C46",
/* pixels */
">X>X>X>X>X>X>X>X>X>X>X>X>X>X>X>X>X>X>X>X>X>X>X>X>X>X>X>X>X>X>X      >X>X>X>X>X>X>X>X>X>X>X>X>X>X>X>X>X>X>X>X>X>X>X>X>X>X>X>X>X>X",
">X>X>X>X>X>X>X>X>X>X>X>X>X>X>X>X>X>X>X>X>X>X>X>X>X>X>X        -X-X-X          >X>X>X>X>X>X>X>X>X>X>X>X>X>X>X>X>X>X>X>X>X>X>X>X>X",
">X>X>X>X>X>X>X>X>X>X>X>X>X>X>X>X>X>X>X>X>X>X>X>X      -X-X=X=X-X-X=X=X=X-X=X=X        >X>X>X>X>X>X>X>X>X>X>X>X>X>X>X>X>X>X>X>X>X",
">X>X>X>X>X>X>X>X>X>X>X>X>X>X>X>X>X>X>X>X>X      -X=X=X=X=X=X=X&X&X=X=X=X*X=X=X=X=X=X-X      >X>X>X>X>X>X>X>X>X>X>X>X>X>X>X>X>X>X",
">X>X>X>X>X>X>X>X>X>X>X>X>X>X>X>X>X>X      -X-X=X=X=X=X*X&X=X=X&X=X&X=X&X%X*X=X*X=X=X&X=X=X=X      >X>X>X>X>X>X>X>X>X>X>X>X>X>X>X",
">X>X>X>X>X>X>X>X>X>X>X>X>X>X>X>X>X  |. X=X=X&X=X=X=X=X=X&X&X&X&X&X&X=X=X=X=X%X&X=X&X&X=X-X-X-X=X-X    >X>X>X>X>X>X>X>X>X>X>X>X>X",
">X>X>X>X>X>X>X>X>X>X>X>X>X>X>X    =X=X%X=X=X&X=X=X=X=X=X=X=X&X&X=X&X=X-X-X&X&X&X&X&X=X=X=X=X=X=X=X=X-X  >X>X>X>X>X>X>X>X>X>X>X>X",
">X>X>X>X>X>X>X>X>X>X>X>X>X>X  =.U.|.*X=X=X=X&X=X-X-X:X:X;X-X=X&X=X=X=X;X-X%X%X&X&X&X%X%X=X%X&X&X=X-X=X-X  >X>X>X>X>X>X>X>X>X>X>X",
">X>X>X>X>X>X>X>X>X>X>X>X>X   X&X=X&X=X&X=X=X&X-X;X=X;X=X=X=X-X-X-X=X&X=X&X&X&X&X&X&X&X&X&X=X&X=X=X=X=X=X=X  >X>X>X>X>X>X>X>X>X>X",
">X>X>X>X>X>X>X>X>X>X>X>X  -X-X=X=X=X=X=X=X&X&X-X=X&X&X&X&X-X-X;X;X%X-X=X$X%X$X&X$X&X&X&X&X&X&X&X%X=X=X=X=X-X  >X>X>X>X>X>X>X>X>X",
">X>X>X>X>X>X>X>X>X>X>X  -X=X=X=X=X=X&X=X=X;X;X&X&X%X%X#X$X=X-X;X-X$X-X;X%X%X%X&X&X&X$X&X&X%X&X&X%X=X%X=X=X*X-X  >X>X>X>X>X>X>X>X",
">X>X>X>X>X>X>X>X>X>X  -X-X-X=X=X=X&X&X&X&X&X-X&X&X$X$X#X#X&X=X-X=X%X;X=X%X%X$X$X$X&X$X&X&X&X&X&X%X=X=X=X=X*X*X.X  >X>X>X>X>X>X>X",
">X>X>X>X>X>X>X>X    -X-X=X=X=X-X=X=X&X&X&X%X%X%X$X$X#X#X#X#X#X$X#X%X=X#X%X%X%X%X&X$X&X&X&X&X=X=X=X=X&X%X&X*X%X*X[   >X>X>X>X>X>X",
">X>X>X>X>X>X>X  .X-X=X=X=X-X-X=X=X=X&X%X%X%X$X%X#X#X#XXXW.W.W.W.XX%X$X#X$X$X%X&X&X&X&X&X=X=X&X&X=X=X=X&X&X*X%X X Xa.  >X>X>X>X>X",
">X>X>X>X>X>X  |.;X=X=X-X=X-X=X=X=X=X%X%X%X%X$X#X#XXXW.R.R.R.E.E.R.W.#XXX#X#X$X&X&X&X&X-X;X=X&X=X&X&X%X&X&X=X*X=X Xa.%.  >X>X>X>X",
">X>X>X>X>X  /.-X-X-X-X-X=X-X=X-X&X&X%X%X%X$X#X#XQ.Y.I.j.h.j.h.h.j.E.W.W.XX#X$X$X#X$X&X$X&X&X=X&X%X&X=X%X%X%X=X=X|. X~.  >X>X>X>X",
">X>X>X>X  H.-X=X=X=X=X=X=X=X=X=X=X=X&X%X%X+XXXOXP.k.g.0.q.9.q.9.q.h.P.P.R.W.oX$X+X$X=X=X=X=X=X=X=X&X%X=X=X*X&X*X|.|.].{   >X>X>X",
">X>X>X  n.-X-X-X-X=X=X=X&X=X=X&X=X=X=X%X$XoXW.P.k.0.7.6.6.7.8.7.9.q.0.# g.T.W.W.oX%X%X=X-X=X%X*X=X&X=X=X=X=X%X%X|.*X]./.  >X>X>X",
">X>X  1. X=X=X=X*X%X%X=X=X=X=X-X-X=X=X=X%XoXP.l.j.P Z Z K L 6.7.7.9.: 1 ; g.k.Y.+X%X=X=X=X=X=X&X&X=X=X*X%X=X%X%X*X*X*X'.-.  >X>X",
">X>X  G. X*X=X*X%X%X=X=X=X=X=X=X&X=X-X=X*X%XY.g.g.J K K L 6.6.7.: ; * 1 3 I h.Y.%X&X=X-X=X=X=X=X-X=X=X&X*X*X*X%X%X%X].~.-.  >X>X",
">X>X  ;.`. X*X%X|.%X&X%X=X=X&X=X=X&X&X=X=X-X=X&X0.C J J K L 8.o o # # * ; 1 oX*X=X-X=X=X=X=X=X=X%X=X*X%X%X=X&X=X X|.'.g D   >X>X",
">X  :.F /.].].`.|.%X=X=X&X&X=X=X=X=X=X=X=X=X=X=X=X-X=X%X0.8.@ # # $ #X-X-X=X=X=X=X=X&X=X=X=X*X=X=X%X%X%X%X%X-X%X'.].M.n D |   >X",
">X  [ #.S '.`.^.'.|.=X=X&X=X=X=X=X=X=X=X=X=X=X=X=X&X=X=X-X=X=X=X=X=X-X-X-X=X=X=X&X&X&X&X=X=X-X=X=X%X%X%X%X%X%XM.e.^.t.f V &.  >X",
">X  { '.d.`.`.^._.|.%X&X=X&X&X=X&X&X&X=X=X=X=X=X=X&X=X=X&X=X=X=X=X=X=X=X=X=X=X&X=X%X&X=X=X=X%X&X=X%X=X=X=X%X|.'.*./.s k b ;.  >X",
">X  #.H ].'.`.M.M._.|.|.%X%X&X=X=X&X=X=X=X=X=X=X=X*X=X*X=X=X*X=X=X&X=X*X=X=X*X=X&X=X=X-X=X%X$X$X%X&X%X|.'.t.z.N.G `.s k F I   >X",
">X  &.b /.%Xe.M.z.`.M._.|.%X=X=X-X=X-X=X=X=X*X*X*X*X*X*X=X*X*X=X=X=X=X=X=X=X=X*X=X=X-X%X%X|.|.|.=X$X'.^.!.r.k { ].d f b b {   >X",
">X  [ l b.b.|.'.s.w.e.m._.|.=X=X&X=X|.=X-X=X=X|.|.'.'.].|. X%X=X=X=X-X=X-X=X-X-X&X&X%X%X%X%X|.|. XM.G $.!.v.g M.p l f s b B   >X",
">X  | l h s.|.x.|.|.d.$.m.U.'.|.|.|.'.|.].|.'.'.M._./.'. X|.|.=X=X-X=X-X&X|.|.|.|.|.|.=X|.'.^.w.f.#.*.w.v.y.G H.e s s S :.{   >X",
">X  1.] r e /.(.*X%X Xl G x.a '._._.M.v.M.m.H.v.s.H.^.[.|.|.|.|.|.%X*X|.'.'.'.|.'.=X|._.t.a.*.l f ) H t.e.e.z.0 s 0 p F { [   >X",
">X  (.O.y q 9 [.].].*X'.'.w.d /.!.m.d.d.N.z.z.$.;.w.s.H./. X'.'.|.'.'._.^._._.|.|.`.x.A ) b n j n r f f s ~.9 r k b V B 5 l   >X",
">X  u.F. .v h 8 r 6 './.`.]./.%.)./.c.c.w.$.w.s.p.z.z.M.).].'.`._._.).!.N.v.p.!.a.S M c k s e h B k s r e 9 r N ` } _ * > H   >X",
">X>X  A.^ o.Q y 8 j J.`.'.]./.'.'.'.'./.B } s.e.b.b.p.p.H ~.b.=.{ p.=.=.;.[ [ ) ) #.S #.z.s.=.e w r 8 e h z c M _ V g % b   >X>X",
">X>X  D.J.,.^ ..N 8 9 7 d 0 [.].'.].'.'./.~./.v._ | B | %.D #.a.H.M.H.H.G.~.~./.*X`.~.G.{ 8 q y r d x Q z 8 e k d k 1 *   >X>X>X",
">X>X>X  (.5.+./ V.o.a.r v t y 6 8 { H.v.c.e.v.b.s.`.`.`.|.*X*X*X*X|.|.|.].`.M.p.;.c.9 w u w y R ! ! O.' , 8 N 9 n d n =   >X>X>X",
">X>X>X>X  J.] +...( } 2.<.T u t t w w u w q k c | b ;.k e.c.`.[.`._.!.U.v.e.8 8 q w t i T  .o.<.Q z j M , 7 z d k k S 5   >X>X>X",
">X>X>X>X>X  J.o.V.2.:.V.R }.o./ Y Y U U U U i u w x q t 8 q t i.1.S.V V t r t i i ~ ~  . .u r w z 9 c c W ! l l B l n   >X>X>X>X",
">X>X>X>X>X>X  D ] W V Q ,.i.@.i.Z.5.4.4.3.@./ ( ^ ( E E Y ^ Y T Y / ^ Y Y ^ ~ o.>.2.z r q q r h j r 8 h k z c M B n 4   >X>X>X>X",
">X>X>X>X>X>X>X    c h a.) @X[.].J.~ 5.V.C.C.5.4.X.X.+.+.@.>.3.3.3.V.5.,.3.4.5.O.T v w w q e R ' 7 e W ] ` ) N n 3     >X>X>X>X>X",
">X>X>X>X>X>X>X>X>X  5 B J./.&.B %.x T  .>.5./ D.L.D.{.F.K.Z.o.+.C.{.{.{.D.,.2.F.O.x r q r q N Q k k ' _ B O.} 3   >X>X>X>X>X>X>X",
">X>X>X>X>X>X>X>X>X>X    5 i.b.e d y v T ' @.,.~ >.}.(.V.D.D.D.F.o.R x ~ D.{.K.@.X.z r ! u l & , e s d < ,       >X>X>X>X>X>X>X>X",
">X>X>X>X>X>X>X>X>X>X>X>X    % > s 9 d v r r h z c 8 7 y u z v t r w 7 q y v z l W N r j d k > % o         >X>X>X>X>X>X>X>X>X>X>X",
">X>X>X>X>X>X>X>X>X>X>X>X>X>X        + O % > , & . o O e h e r j y y 7 r d r d d 9 , , = 2         >X>X>X>X>X>X>X>X>X>X>X>X>X>X>X",
">X>X>X>X>X>X>X>X>X>X>X>X>X>X>X>X>X>X                  X o o - d e & & , & & $ & % $ O     >X>X>X>X>X>X>X>X>X>X>X>X>X>X>X>X>X>X>X",
">X>X>X>X>X>X>X>X>X>X>X>X>X>X>X>X>X>X>X>X>X>X>X>X>X>X>X                                >X>X>X>X>X>X>X>X>X>X>X>X>X>X>X>X>X>X>X>X>X",
">X>X>X>X>X>X>X>X>X>X>X>X>X>X>X>X>X>X>X>X>X>X>X>X>X>X>X>X>X>X>X>X>X>X>X>X>X>X>X>X>X>X>X>X>X>X>X>X>X>X>X>X>X>X>X>X>X>X>X>X>X>X>X>X"
};
