/* XPM */
static char *exit[] = {
/* columns rows colors chars-per-pixel */
"64 64 10 1 ",
"  c black",
". c gray29",
"X c #686868",
"o c #9B740A",
"O c #F74800",
"+ c #B5890F",
"@ c #C69A1F",
"# c #D8AB2D",
"$ c white",
"% c #388C46",
/* pixels */
"%%%%%%%%%%%%%%%%%%%%%%%%%%%%%%%%%%%%%%%%%%%%%%%%%%%%%%%%%%%%%%%%",
"%%%%%%%%%%%%%%%%%%%%%%%%%%%%%%%%%%%%%%%%%%%%%%%%%%%%%%%%%%%%%%%%",
"%%%%%%%%%%%%%%%%%%%%%%%%%%%%%%%%%%%%%%%%%%%%%%%%%%%%%%%%%%%%%%%%",
"%%%%%%%%%%%%%%%%%%%%%%%%%%%%%%%%%%%%%%%%%%%%%%%%%%%%%%%%%%%%%%%%",
"%%%%%%%%%%%%%%%%%%%%%%%%%%%%%%%%%%%%%%%%%%%%%%%%%%%%%%%%%%%%%%%%",
"%%%%%%%%%%%%%%%%%%%%%%%%%%%%%%%%%%%%%%%%%%%%%%%%%%%%%%%%%%%%%%%%",
"%%%%%%%%%%%%%%%%%%%%%%%%%%%%%%%%%%%%%%%%%%%%%%%%%%%%%%%%%%%%%%%%",
"%%%%%%%%%%%%%%%%%%%%%%%%%%%%%%%%%%%%%%%%%%%%%%%%%%%%%%%%%%%%%%%%",
"%%%%%%%%%%%%%%%%%%%%%%%%%%%%%%%%%%%%%%%%%%%%%%%%%%%%%%%%%%%%%%%%",
"%%%%%%%%%%%%%%%%%%%%%%%%%%%%%%%%%%%%%%%%%%%%%%%%%%%%%%%%%%%%%%%%",
"%%%%%%%%%%%%%%%%%%%%%%%%%%%%%%%%%%%%%%%%%%%%%%%%%%%%%%%%%%%%%%%%",
"%%%%%%%%%%%%%%%%%%%%%%%%%%%%%%%%%%%%%%%%%%%%%%%%%%%%%%%%%%%%%%%%",
"%%%%%%%%%%%%%%%%%%%%%%%%%%%%%%%%%%%%%%%%%%%%%%%%%%%%%%%%%%%%%%%%",
"%%%%%%%%%%%%%%%%%%%%%%%%%%%%        %%%%%%%%%%%%%%%%%%%%%%%%%%%%",
"%%%%%%%%%%%%%%%%%%%%%%%%%%%%        %%%%%%%%%%%%%%%%%%%%%%%%%%%%",
"%%%%%%%%%%%%%%%%%%%%%%%%    ########    %%%%%%%%%%%%%%%%%%%%%%%%",
"%%%%%%%%%%%%%%%%%%%%%%%%    ########    %%%%%%%%%%%%%%%%%%%%%%%%",
"%%%%%%%%%%%%%%%%%%%%    ####@@++++@@####    %%%%%%%%%%%%%%%%%%%%",
"%%%%%%%%%%%%%%%%%%%%    ####@@++++@@####    %%%%%%%%%%%%%%%%%%%%",
"%%%%%%%%%%%%%%%%%%  ##@@++++++++++++++++@@##  %%%%%%%%%%%%%%%%%%",
"%%%%%%%%%%%%%%%%%%  ##@@++++++++++++++++@@##  %%%%%%%%%%%%%%%%%%",
"%%%%%%%%%%%%%%%%%%  @@++    ++++++++    ++@@  %%%%%%%%%%%%%%%%%%",
"%%%%%%%%%%%%%%%%%%  @@++    ++++++++    ++@@  %%%%%%%%%%%%%%%%%%",
"%%%%%%%%%%%%%%%%  @@++  OO$$  ++++  OO$$  ++@@  %%%%%%%%%%%%%%%%",
"%%%%%%%%%%%%%%%%  @@++  OO$$  ++++  OO$$  ++@@  %%%%%%%%%%%%%%%%",
"%%%%%%%%%%%%%%%%  ++++  OOOO  ++++  OOOO  ++++  %%%%%%%%%%%%%%%%",
"%%%%%%%%%%%%%%%%  ++++  OOOO  ++++  OOOO  ++++  %%%%%%%%%%%%%%%%",
"%%%%%%%%%%%%%%%%  ++++++    ++@@@@++    ++++++  %%%%%%%%%%%%%%%%",
"%%%%%%%%%%%%%%%%  ++++++    ++@@@@++    ++++++  %%%%%%%%%%%%%%%%",
"%%%%%%%%%%%%%%  oo++++++++++@@    @@++++++++++oo  %%%%%%%%%%%%%%",
"%%%%%%%%%%%%%%  oo++++++++++@@    @@++++++++++oo  %%%%%%%%%%%%%%",
"%%%%%%%%%%%%%%      ++++++@@  ..XX  @@++++++      %%%%%%%%%%%%%%",
"%%%%%%%%%%%%%%      ++++++@@  ..XX  @@++++++      %%%%%%%%%%%%%%",
"%%%%%%%%%%%%%%  oooo    ++  XX..XX..  ++    oooo  %%%%%%%%%%%%%%",
"%%%%%%%%%%%%%%  oooo    ++  XX..XX..  ++    oooo  %%%%%%%%%%%%%%",
"%%%%%%%%%%%%%%%%  ++oooo    XX..XX..    oooo++  %%%%%%%%%%%%%%%%",
"%%%%%%%%%%%%%%%%  ++oooo    XX..XX..    oooo++  %%%%%%%%%%%%%%%%",
"%%%%%%%%%%%%%%%%  ++++oooo  XX..XX..  oooo++++  %%%%%%%%%%%%%%%%",
"%%%%%%%%%%%%%%%%  ++++oooo  XX..XX..  oooo++++  %%%%%%%%%%%%%%%%",
"%%%%%%%%%%%%%%%%%%                            %%%%%%%%%%%%%%%%%%",
"%%%%%%%%%%%%%%%%%%                            %%%%%%%%%%%%%%%%%%",
"%%%%%%%%%%%%%%%%%%%%    ++++++++++++++++    %%%%%%%%%%%%%%%%%%%%",
"%%%%%%%%%%%%%%%%%%%%    ++++++++++++++++    %%%%%%%%%%%%%%%%%%%%",
"%%%%%%%%%%%%%%%%%%  %%  oooo++++++++oooo  %%  %%%%%%%%%%%%%%%%%%",
"%%%%%%%%%%%%%%%%%%  %%  oooo++++++++oooo  %%  %%%%%%%%%%%%%%%%%%",
"%%%%%%%%%%%%%%%%%%  %%      oooooooo      %%  %%%%%%%%%%%%%%%%%%",
"%%%%%%%%%%%%%%%%%%  %%      oooooooo      %%  %%%%%%%%%%%%%%%%%%",
"%%%%%%%%%%%%%%%%%%  %%%%%%            %%%%%%  %%%%%%%%%%%%%%%%%%",
"%%%%%%%%%%%%%%%%%%  %%%%%%            %%%%%%  %%%%%%%%%%%%%%%%%%",
"%%%%%%%%%%%%%%%%%%%%%%%%%%  %%%%%%%%  %%%%%%%%%%%%%%%%%%%%%%%%%%",
"%%%%%%%%%%%%%%%%%%%%%%%%%%  %%%%%%%%  %%%%%%%%%%%%%%%%%%%%%%%%%%",
"%%%%%%%%%%%%%%%%%%%%%%%%%%  %%%%%%%%  %%%%%%%%%%%%%%%%%%%%%%%%%%",
"%%%%%%%%%%%%%%%%%%%%%%%%%%  %%%%%%%%  %%%%%%%%%%%%%%%%%%%%%%%%%%",
"%%%%%%%%%%%%%%%%%%%%%%%%%%  %%%%%%%%  %%%%%%%%%%%%%%%%%%%%%%%%%%",
"%%%%%%%%%%%%%%%%%%%%%%%%%%  %%%%%%%%  %%%%%%%%%%%%%%%%%%%%%%%%%%",
"%%%%%%%%%%%%%%%%%%%%%%%%%%%%%%%%%%%%%%%%%%%%%%%%%%%%%%%%%%%%%%%%",
"%%%%%%%%%%%%%%%%%%%%%%%%%%%%%%%%%%%%%%%%%%%%%%%%%%%%%%%%%%%%%%%%",
"%%%%%%%%%%%%%%%%%%%%%%%%%%%%%%%%%%%%%%%%%%%%%%%%%%%%%%%%%%%%%%%%",
"%%%%%%%%%%%%%%%%%%%%%%%%%%%%%%%%%%%%%%%%%%%%%%%%%%%%%%%%%%%%%%%%",
"%%%%%%%%%%%%%%%%%%%%%%%%%%%%%%%%%%%%%%%%%%%%%%%%%%%%%%%%%%%%%%%%",
"%%%%%%%%%%%%%%%%%%%%%%%%%%%%%%%%%%%%%%%%%%%%%%%%%%%%%%%%%%%%%%%%",
"%%%%%%%%%%%%%%%%%%%%%%%%%%%%%%%%%%%%%%%%%%%%%%%%%%%%%%%%%%%%%%%%",
"%%%%%%%%%%%%%%%%%%%%%%%%%%%%%%%%%%%%%%%%%%%%%%%%%%%%%%%%%%%%%%%%",
"%%%%%%%%%%%%%%%%%%%%%%%%%%%%%%%%%%%%%%%%%%%%%%%%%%%%%%%%%%%%%%%%"
};
