/* XPM */
static char *person[] = {
/* columns rows colors chars-per-pixel */
"64 64 9 1 ",
"  c black",
". c #830303",
"X c #A8437B",
"o c #C85A97",
"O c #C85A98",
"+ c #DB6FAB",
"@ c #E07EB5",
"# c white",
"$ c #388C46",
/* pixels */
"$$$$$$$$$$$$$$$$$$$$$$$$$$$$$$$$$$$$$$$$$$$$$$$$$$$$$$$$$$$$$$$$",
"$$$$$$$$$$$$$$$$$$$$$$$$$$$$$$$$$$$$$$$$$$$$$$$$$$$$$$$$$$$$$$$$",
"$$$$$$$$$$$$$$$$$$$$$$$$$$$$$$$$$$$$$$$$$$$$$$$$$$$$$$$$$$$$$$$$",
"$$$$$$$$$$$$$$$$$$$$$$$$$$$$$$$$$$$$$$$$$$$$$$$$$$$$$$$$$$$$$$$$",
"$$$$$$$$$$$$$$$$$$$$$$$$$$$$$$$$$$$$$$$$$$$$$$$$$$$$$$$$$$$$$$$$",
"$$$$$$$$$$$$$$$$$$$$$$$$$$$$$$$$$$$$$$$$$$$$$$$$$$$$$$$$$$$$$$$$",
"$$$$$$$$$$$$$$$$$$$$$$$$$$$$$$$$$$$$$$$$$$$$$$$$$$$$$$$$$$$$$$$$",
"$$$$$$$$$$$$$$$$$$$$$$$$$$$$$$$$$$$$$$$$$$$$$$$$$$$$$$$$$$$$$$$$",
"$$$$$$$$$$$$$$$$$$$$$$$$$$$$$$$$$$$$$$$$$$$$$$$$$$$$$$$$$$$$$$$$",
"$$$$$$$$$$$$$$$$$$$$$$$$$$$$$$$$$$$$$$$$$$$$$$$$$$$$$$$$$$$$$$$$",
"$$$$$$$$$$$$$$$$$$$$$$$$$$$$$$$$$$$$$$$$$$$$$$$$$$$$$$$$$$$$$$$$",
"$$$$$$$$$$$$$$$$$$$$$$$$$$$$$$$$$$$$$$$$$$$$$$$$$$$$$$$$$$$$$$$$",
"$$$$$$$$$$$$$$$$$$$$$$$$$$$$$$$$$$$$$$$$$$$$$$$$$$$$$$$$$$$$$$$$",
"$$$$$$$$$$$$$$$$$$$$$$      $$$$$$$$      $$$$$$$$$$$$$$$$$$$$$$",
"$$$$$$$$$$$$$$$$$$$$$$      $$$$$$$$      $$$$$$$$$$$$$$$$$$$$$$",
"$$$$$$$$$$$$$$$$$$    @@@@@@        @@@@@@    $$$$$$$$$$$$$$$$$$",
"$$$$$$$$$$$$$$$$$$    @@@@@@        @@@@@@    $$$$$$$$$$$$$$$$$$",
"$$$$$$$$$$$$$$$$  @@++OOOOOO++++++++OOOOOO++@@  $$$$$$$$$$$$$$$$",
"$$$$$$$$$$$$$$$$  @@++OOOOOO++++++++OOOOOO++@@  $$$$$$$$$$$$$$$$",
"$$$$$$$$$$$$$$$$  ooOO  OOOOOOOOOOOOOOOO  OOOO  $$$$$$$$$$$$$$$$",
"$$$$$$$$$$$$$$$$  ooOO  OOOOOOOOOOOOOOOO  OOOO  $$$$$$$$$$$$$$$$",
"$$$$$$$$$$$$$$  @@oo  ..  OOOOOOOOOOOO  ..  OO@@  $$$$$$$$$$$$$$",
"$$$$$$$$$$$$$$  @@oo  ..  OOOOOOOOOOOO  ..  OO@@  $$$$$$$$$$$$$$",
"$$$$$$$$$$$$$$  ++oo  ..##  OOOOOOOO  ..##  OO++  $$$$$$$$$$$$$$",
"$$$$$$$$$$$$$$  ++oo  ..##  OOOOOOOO  ..##  OO++  $$$$$$$$$$$$$$",
"$$$$$$$$$$$$$$  ooooXX  ..##  XXXX  ..##  XXOOOO  $$$$$$$$$$$$$$",
"$$$$$$$$$$$$$$  ooooXX  ..##  XXXX  ..##  XXOOOO  $$$$$$$$$$$$$$",
"$$$$$$$$$$$$  ++ooooooXX  ..  XXXX  ..  XXOOOOOO++  $$$$$$$$$$$$",
"$$$$$$$$$$$$  ++ooooooXX  ..  XXXX  ..  XXOOOOOO++  $$$$$$$$$$$$",
"$$$$$$$$$$$$  ooooooooooXX  XXOOOOXX  XXOOOOOOOOOO  $$$$$$$$$$$$",
"$$$$$$$$$$$$  ooooooooooXX  XXOOOOXX  XXOOOOOOOOOO  $$$$$$$$$$$$",
"$$$$$$$$$$$$  oooooooooooooooOOOOOOOOOOOOOOOOOOOOO  $$$$$$$$$$$$",
"$$$$$$$$$$$$  oooooooooooooooOOOOOOOOOOOOOOOOOOOOO  $$$$$$$$$$$$",
"$$$$$$$$$$$$  XXoooooooooo            OOOOOOOOOOXX  $$$$$$$$$$$$",
"$$$$$$$$$$$$  XXoooooooooo            OOOOOOOOOOXX  $$$$$$$$$$$$",
"$$$$$$$$$$$$$$  XXooooXX  oooOOOOOOOOO  XXOOOOXX  $$$$$$$$$$$$$$",
"$$$$$$$$$$$$$$  XXooooXX  oooooooooooo  XXOOooXX  $$$$$$$$$$$$$$",
"$$$$$$$$$$$$$$$$  XXXXXX  XX  XXXX  XX  XXXXXX  $$$$$$$$$$$$$$$$",
"$$$$$$$$$$$$$$$$  XXXXXX  XX  XXXX  XX  XXXXXX  $$$$$$$$$$$$$$$$",
"$$$$$$$$$$$$$$$$$$        XXXXXXXXXXXX        $$$$$$$$$$$$$$$$$$",
"$$$$$$$$$$$$$$$$$$        XXXXXXXXXXXX        $$$$$$$$$$$$$$$$$$",
"$$$$$$$$$$$$$$$$$$$$    oo            oo    $$$$$$$$$$$$$$$$$$$$",
"$$$$$$$$$$$$$$$$$$$$    oo            oo    $$$$$$$$$$$$$$$$$$$$",
"$$$$$$$$$$$$$$$$$$  $$  XXXXooooooooXXXX  $$  $$$$$$$$$$$$$$$$$$",
"$$$$$$$$$$$$$$$$$$  $$  XXXXooooooooXXXX  $$  $$$$$$$$$$$$$$$$$$",
"$$$$$$$$$$$$$$$$$$  $$      XXXXXXXX      $$  $$$$$$$$$$$$$$$$$$",
"$$$$$$$$$$$$$$$$$$  $$      XXXXXXXX      $$  $$$$$$$$$$$$$$$$$$",
"$$$$$$$$$$$$$$$$$$  $$$$$$            $$$$$$  $$$$$$$$$$$$$$$$$$",
"$$$$$$$$$$$$$$$$$$  $$$$$$            $$$$$$  $$$$$$$$$$$$$$$$$$",
"$$$$$$$$$$$$$$$$$$$$$$$$$$  $$$$$$$$  $$$$$$$$$$$$$$$$$$$$$$$$$$",
"$$$$$$$$$$$$$$$$$$$$$$$$$$  $$$$$$$$  $$$$$$$$$$$$$$$$$$$$$$$$$$",
"$$$$$$$$$$$$$$$$$$$$$$$$$$  $$$$$$$$  $$$$$$$$$$$$$$$$$$$$$$$$$$",
"$$$$$$$$$$$$$$$$$$$$$$$$$$  $$$$$$$$  $$$$$$$$$$$$$$$$$$$$$$$$$$",
"$$$$$$$$$$$$$$$$$$$$$$$$$$  $$$$$$$$  $$$$$$$$$$$$$$$$$$$$$$$$$$",
"$$$$$$$$$$$$$$$$$$$$$$$$$$  $$$$$$$$  $$$$$$$$$$$$$$$$$$$$$$$$$$",
"$$$$$$$$$$$$$$$$$$$$$$$$$$$$$$$$$$$$$$$$$$$$$$$$$$$$$$$$$$$$$$$$",
"$$$$$$$$$$$$$$$$$$$$$$$$$$$$$$$$$$$$$$$$$$$$$$$$$$$$$$$$$$$$$$$$",
"$$$$$$$$$$$$$$$$$$$$$$$$$$$$$$$$$$$$$$$$$$$$$$$$$$$$$$$$$$$$$$$$",
"$$$$$$$$$$$$$$$$$$$$$$$$$$$$$$$$$$$$$$$$$$$$$$$$$$$$$$$$$$$$$$$$",
"$$$$$$$$$$$$$$$$$$$$$$$$$$$$$$$$$$$$$$$$$$$$$$$$$$$$$$$$$$$$$$$$",
"$$$$$$$$$$$$$$$$$$$$$$$$$$$$$$$$$$$$$$$$$$$$$$$$$$$$$$$$$$$$$$$$",
"$$$$$$$$$$$$$$$$$$$$$$$$$$$$$$$$$$$$$$$$$$$$$$$$$$$$$$$$$$$$$$$$",
"$$$$$$$$$$$$$$$$$$$$$$$$$$$$$$$$$$$$$$$$$$$$$$$$$$$$$$$$$$$$$$$$",
"$$$$$$$$$$$$$$$$$$$$$$$$$$$$$$$$$$$$$$$$$$$$$$$$$$$$$$$$$$$$$$$$"
};
