/* XPM */
static char *tree[] = {
/* columns rows colors chars-per-pixel */
"64 64 13 1 ",
"  c #58475B",
". c #6D5A7F",
"X c #756399",
"o c #B53488",
"O c #FF49BF",
"+ c #FF7CD1",
"@ c #8686CC",
"# c #FFB5C8",
"$ c #A8CFFF",
"% c #FFE2C9",
"& c #D3E7FF",
"* c #F7FAFF",
"= c #388C46",
/* pixels */
"==============================+=================================",
"==============================+=============================+===",
"==============================o===========================o+o===",
"=============================+o========================+oo%o====",
"=============================o%o==============++o+ooooo%%%o=====",
"=============================o%%o===========oo##%%#%%%%%o+======",
"=============================+%%%oo+=======o+#+##%%%ooo+========",
"==============================o###%%o+====++####%#oo============",
"==============================+%#%%#%%o+==o++#%#o+==============",
"===============================o%#%%%#%#o=o+#+#o================",
"================================o%##%%+#+o+++#o=================",
"=================================+#+##+++o++++o=================",
"====+=============================+o++#++o+++o==================",
"====o===============================o+++ooo+oo==================",
"===+o===========================+====oooooooo+==================",
"===o#o==================+=======oo====ooooooo===================",
"===o#%oo===============oo=======o%oo+=ooooooo===================",
"===o%#%%o==============o+========o%##ooooo+oO===================",
"====o%%%#o============+o=========+o#++ooo+++o========+oo+o++====",
"====o%%#%#+====+======oo==========o++ooo++++#oo+===oo%%oo=======",
"=====o###+o====o======o%===========ooooo+++#+###ooo%%o+=========",
"======o++#o====o+=====+%o=========== oooo++##+#%%%%o+===========",
"=======o#++o===oo======o%o=======@. XXXooooo+#%#%oo=============",
"=======o+++o===oo======o##+===@. $&&@@XX ===oooo+===============",
"========o+oo==o%o======+%oo=  $&&&$$$@  =====================+==",
"========oooo=o#%o=======ooo X@@$$$@@X =======================o==",
"===+====ooooo+#o=========oo$@@XXXXX  ===============ooo+====oo==",
"===oo==oooo++#+o========= &$$@@@X .oo+====o+=======o+#+#oooo%o==",
"===o#oooooooo+o=========.$&$$@X .ooo%%oooo+=======o+#+#%#%#%o===",
"====o%#ooooooo========== &$$@. ==ooO#O#%o===o==== o+ooo#%%%%o===",
"=====o++oo ============@$$$@*&.===+oooo+===+o=== ooo===oooo+====",
"======oooX ============.@@@**@=============o=== @o==============",
"======== @ ===========.X@$.&$@============+o== $ ===============",
"========.@$ ========== @$$@..=============oo== &ooooo===========",
"========= X@ .======== $$$$@ =============oo=.$o+#oo%o==========",
"=======oooooX@ . ..== $$@@$$.=============o%o.& oo==oooo========",
"=====+ooooooo@$$&&$  @@@$$$$ =============+#% & ================",
"====o+ooo+ooo @$$$$&&&$$$$&$.==============o#.$ ================",
"===o#%+o++#o+=.  @@$$$$&$$&$.==============o+ $X ===============",
"=oo%%#oo+#+o=====  X@@@$$$&$$@==============o @@$.==============",
"==+ooo=o##+o=======  X@@ $&&$.==============+.XX$ ==============",
"=======o#%#o=========   @$$&$$ ==============o @&$.=============",
"========o#%o========= X@$$$&$@$ ============== $$$.=============",
"========o%#+========== @$$$$$@$$ ============@$$@$ =============",
"========o%o=========== @$$&$$$@$$.@==========.@@$$.=============",
"=======o%#o===========.X@$$$$$@@$$$.@======@ @$$&@.=============",
"======o%oo============= X@$$&$$@@$$$$.. .  $$&&&$ ==============",
"=====oo+===============.XXX@$&$$@X$$$$$$@@$&&&$$X ==============",
"========================.$*&X$&$@@$$@$&$$@@$$$$@ ===============",
"=========================@$**@&$$@@$$$$&$@@@XXX ================",
"==========================@*&@&&$@X$@$$&$ X@@X =================",
"========================== XX$$&$XX&$@$&&$ X  ==================",
"==========================.X$$&$$@X$$@$$&$  ====================",
"=========================== @$$$@X$&$@$&$@ =====================",
"===========================.@@@XXX$&@X$$@X =====================",
"============================ $$@X$&$@$$@*&$@====================",
"============================ X$@$$$@XX$@***&@===================",
"============================ XX@$&$@$&$@X*&&.X==================",
"============================ X@@$$@$&$@@$@..$.==================",
"============================@&X@$$$$$@@$&@@&$ ==================",
"===========================@&*X@@$$@@X$&X@@@$$.=================",
"===========================@*$XX@@@@$@@@X@@&@$ =================",
"==========================.$$XXXXX$&@@XXX@@@&$ =================",
"========================== XXXXX@X@@@@@XXX@@@$ ================="
};
