/* XPM */
static char *TX_FX_Torch_Flame[] = {
/* columns rows colors chars-per-pixel */
"128 128 2 1 ",
"  c white",
". c None",
/* pixels */
"................................................................................................................................",
"................................................................................................................................",
"................................................................................................................................",
"................................................................................................................................",
"................................................................................................................................",
"................................................................................................................................",
"................................................................................................................................",
"................................................................................................................................",
"................................................................................................................................",
"................................................................................................................................",
"................................................................................................................................",
"................................................................................................................................",
"................................................................................................................................",
"........................................................................... .........................................   ........",
"............................... ...................... ...................   .......................................    ........",
".......... ..................... ....................   ..................   ..................   ..................    ........",
".......... .....................  ...................   ..................  ...................   ..................    ........",
"........... ...................   ..................   ...................  ...................   ...................   ........",
"................................ .................... ..................... ....................  .................... .........",
"................................................................................................................................",
"................................................................................................................................",
"................................................................................................................................",
"................................................................................................................................",
"................................................................................................................................",
"................................................................................................................................",
"................................................................................................................................",
"................................................................................................................................",
"................................................................................................................................",
"................................................................................................................................",
"................................................................................................................................",
"...............................  ...................   ................................................................. .......",
"..............................    ....................  ...............................................................  .......",
".........   ................. .    ...................   .................    ...................  ...................   .......",
"........    ...................    .................    .................     ..................    .................   ........",
"..........   ..................    ................     .................     ..................    ..............      ........",
".........    ................      ................     .................     ...............       ...............     ........",
"........     ................      .................     ...............      ...............      .................    ........",
"........     ................      .................     ...............      ...............      ................     ........",
".........    ..................    ................     ................     .................     ................     ........",
"..........   ...................   ..................   .................    .................     .................    ........",
"...........  ...................  .................... ....................  ...................  ....................  ........",
"................................................................................................................................",
"................................................................................................................................",
"................................................................................................................................",
"................................................................................................................................",
"................................................................................................................................",
"................................................................................................................................",
"................................................................................................................................",
"................................................................................................................................",
"................................................................................................................................",
"................................   ........................................  ...................................................",
"...............................   ................... ...................     ..................................................",
"............  .................   ...................   .................     ..................................................",
"...........  .................     ................      ................     ................     ................     ........",
".........    .................     ................      ...............      ................     ................     ........",
".........    ................      ................     ................      ................     ...............      ........",
".........     ...............      ................    ..................     ...............      ..............       ........",
"........      ...............      ................    .................      ...............      .............        ........",
"........     ................      ................     ................     ...............       .............        ........",
"........     ................      ...............      ...............      ...............       .............        ........",
"........     .................    ................      ...............      ..............  ..    ..............      .........",
".........    ..................   .................    .................     ..................   .................    .........",
"................................................................................................ ...................  ..........",
"................................................................................................................................",
"................................................................................................................................",
"................................................................................................................................",
"................................................................................................................................",
"................................................................................................................................",
"................................................................................................................................",
"........................................................................................................................ .......",
"..................................................................................................................... ..  ......",
"...................................................................................................................   ... ......",
"..................................................................................................................   ...........",
"........     ................     ...................................  ..     ..................   ..............      .........",
"........     ............... .    ...................................         ...............   . ...............       ........",
"....... .    ..............       ...............       ............         ..............        ...............        ......",
"......       ..............       ..............        ............           ...........          ...............      .......",
".....        .............        ..............         ............          ............         ............  ..    ........",
".....        .............         .............          ...........          ............ ..     .............  ..   .........",
".....        .............          .............         ............ .      ............. ..     .............        ........",
".....         .............         ...............      ............. ..     .............. .     ..............       ........",
"......        .............. .     .................     .............. .     ................     ...............      ........",
"....... .     ................     .................     ................    ..................   ..................   .........",
"..........   ..................    .................   ...................  ...................  ....................  .........",
"................................................................................................................................",
"................................................................................................................................",
"................................................................................................................................",
"................................................................................................................................",
"................................................................................................................................",
"..................................................... ..........................................................................",
"............................... ....................  ..........................................................................",
"........................... ..    .................. ...........................................................................",
".............................      .............................................................................................",
".............................      ................ .................... .. ......................................   ...........",
"............................        ...............  ...................   . ....................................     ..........",
".......       ................   .................. .. ................    .......................................    ..........",
".........     ................    ...............  .   ...............     ..................      ................  ...........",
".........    ...............      ...............      .................    ..................     .................   .........",
"...... ..   ...............       ................      .................    .................    ...................  .........",
"......       ..............       ................     ..................    .................    ...................   ........",
"......       ...............      ..................   ..................    ..................   ..................    ........",
".......      .................    ..................   ..................    ..................    .................    ........",
".........    ..................   ..................   ...................   ..................    ..................   ........",
"..........  ...................   ...................  ...................  ....................  ..............................",
"..........  .................... ...............................................................................................",
"................................................................................................................................",
"................................................................................................................................",
"................................................................................................................................",
"................................................................................................................................",
"................................................................................................................................",
"................................................................................................................................",
"................................................................................................................................",
"................................................................................................................................",
"................................................................................................................................",
"................................................................................................................................",
"................................................................................................................................",
"................................................................................................................................",
"................................  ........................................... ..................................................",
"..........   ...................   .................... ........................................................................",
"..........   ....................  ................. ..  ................ ..... ................................................",
"...........   ...................  ................  ..  ...................... ................................................",
"...........   ................  .  ................. .  ........................................................................",
"..........    .................    ................... .........................................................................",
"...........  ...................  ..............................................................................................",
"................................................................................................................................",
"................................................................................................................................",
"................................................................................................................................",
"................................................................................................................................"
};
