/* XPM */
static char *donut[] = {
/* columns rows colors chars-per-pixel */
"64 64 118 2 ",
"   c #050505",
".  c #0C0C0C",
"X  c #141414",
"o  c #1B1B1B",
"O  c #232323",
"+  c #2D2C21",
"@  c #2B2B2B",
"#  c #333333",
"$  c #3B3B3B",
"%  c #7C2F16",
"&  c #7F3117",
"*  c #434222",
"=  c #4D4B27",
"-  c #514F29",
";  c #5E5D30",
":  c #656334",
">  c #7B793F",
",  c #434343",
"<  c #4C4C4C",
"1  c #535353",
"2  c #5C5C5C",
"3  c #7E7C40",
"4  c #656450",
"5  c #646464",
"6  c #6B6B6B",
"7  c #737373",
"8  c #7B7B7B",
"9  c #8C3618",
"0  c #8E3A1A",
"q  c #933E1A",
"w  c #944118",
"e  c #9C421D",
"r  c #924B18",
"t  c #984C1B",
"y  c #915622",
"u  c #B25724",
"i  c #BF5B2A",
"p  c #8D6D35",
"a  c #B26424",
"s  c #B86225",
"d  c #BD7428",
"f  c #B77D36",
"g  c #C25A2C",
"h  c #D0662F",
"j  c #C3752C",
"k  c #CF7030",
"l  c #C97D30",
"z  c #D87537",
"x  c #E27C3B",
"c  c #DE8F38",
"v  c #DC993A",
"b  c #E48D33",
"n  c #E2803B",
"m  c #EB993D",
"M  c #E7A63E",
"N  c #F8AB39",
"B  c #F8BA3F",
"V  c #858244",
"C  c #8B8344",
"Z  c #8D8B49",
"A  c #918E4A",
"S  c #99974F",
"D  c #9B984F",
"F  c #9F9D52",
"G  c #A5A255",
"H  c #A9A757",
"J  c #B2AF5C",
"K  c #B5B25D",
"L  c #A6A460",
"P  c #BBB860",
"I  c #E78941",
"U  c #E98841",
"Y  c #E99C41",
"T  c #DBB559",
"R  c #ECA443",
"E  c #EFAC46",
"W  c #F1B144",
"Q  c #F8B244",
"!  c #FCBC43",
"~  c #F4BC4C",
"^  c #F5A451",
"/  c #F5AC50",
"(  c #F8B455",
")  c #F7B952",
"_  c #C2BF63",
"`  c #FCBE61",
"'  c #FDC94D",
"]  c #C6C366",
"[  c #CAC365",
"{  c #C8C568",
"}  c #CDCA69",
"|  c #D0CD6B",
" . c #D7D36E",
".. c #DDD972",
"X. c #FDC767",
"o. c #FECE6E",
"O. c #FED666",
"+. c #FED865",
"@. c #FFD56F",
"#. c #FFDD6C",
"$. c #E1DE74",
"%. c #FFDD72",
"&. c #FFDE7C",
"*. c #FFE16A",
"=. c #E5E176",
"-. c #EDE979",
";. c #FFEB74",
":. c #FFE278",
">. c #FFEA7B",
",. c #848484",
"<. c #898989",
"1. c #FFE582",
"2. c #FFEB82",
"3. c #FFED8A",
"4. c #FFF283",
"5. c #FFF48F",
"6. c #FFF494",
"7. c #388C46",
/* pixels */
"7.7.7.7.7.7.7.7.7.7.7.7.7.7.7.7.7.7.7.7.7.7.7.7.7.7.7.7.7.7.7.7.7.7.7.7.7.7.7.7.7.7.7.7.7.7.7.7.7.7.7.7.7.w w 7.7.7.7.7.7.7.7.7.",
"7.7.7.7.7.7.7.7.7.7.7.7.7.7.7.7.7.7.7.7.7.7.7.7.7.7.7.7.7.7.7.7.7.7.7.7.7.7.7.7.7.7.7.7.7.7.7.7.7.7.7.a c R Y k e 7.7.7.7.7.7.7.",
"7.7.7.7.7.7.7.7.7.7.7.7.7.7.7.7.7.7.7.7.7.7.7.7.7.7.7.7.7.7.7.7.7.7.7.7.7.7.7.7.7.7.7.7.7.7.V Z V p l ~ +.#.@.( x e 7.7.7.7.7.7.",
"7.7.7.7.7.7.7.7.7.7.7.7.7.7.7.7.7.7.7.7.7.7.7.7.7.7.7.7.7.7.7.7.7.7.7.7.7.7.7.7.7.7.7.7.} =.} ] [ T m Q +.2.1.@.^ h 7.7.7.7.7.7.",
"7.7.7.7.7.7.7.7.7.7.7.7.7.7.7.7.7.7.7.7.7.7.7.7.7.7.7.7.7.7.7.7.7.7.7.7.7.7.7.7.7.7.3 -.P F C V C f b N ! #.6.:.X.x 9 7.7.7.7.7.",
"7.7.7.7.7.7.7.7.7.7.7.7.7.7.7.7.7.7.7.7.7.7.7.7.7.7.7.7.7.7.7.7.7.7.7.7.7.7.7.7.7.7.-.P V 7.7.7.y v E ! ' 3.6.1.X.U q 7.7.7.7.7.",
"7.7.7.7.7.7.7.7.7.7.7.7.7.7.7.7.7.7.7.7.7.7.7.7.7.7.7.7.7.7.7.7.7.7.7.7.7.7.7.7.7...] 3 7.7.7.7.r ~ ;.;.>.6.3.&.( x & 7.7.7.7.7.",
"7.7.7.7.7.7.7.7.7.7.7.7.7.7.7.7.7.7.7.7.7.7.7.7.7.7.7.7.7.7.7.7.7.7.7.7.7.7.7.7.G $.A 7.7.7.7.7.7.M *.4.6.5.1.@.^ g 7.7.7.7.7.7.",
"7.7.7.7.7.7.7.7.7.7.7.7.7.7.7.7.7.7.7.7.7.7.7.7.7.7.7.7.7.7.7.7.7.7.7.7.7.7.7.7.-.J = 7.7.7.7.7.7.d ) *.>.:.X.^ z & 7.7.7.7.7.7.",
"7.7.7.7.7.7.7.7.7.7.7.7.7.7.7.7.7.7.7.7.7.7.7.7.7.7.7.7.7.7.7.7.7.7.7.7.7.7.7.H ..3 7.7.7.7.7.7.7.7.j E ) / I g & 7.7.7.7.7.7.7.",
"7.7.7.7.7.7.7.7.7.7.7.7.7.7.7.7.7.7.7.7.7.7.7.7.7.7.7.7.7.7.7.7.7.7.7.7.7.7.7.=.K * 7.7.7.7.7.7.7.7.7.t s u 0 7.7.7.7.7.7.7.7.7.",
"7.7.7.7.7.7.7.7.7.7.7.7.7.7.7.7.7.7.7.7.7.7.7.7.7.7.7.7.7.7.7.7.7.7.7.7.7.7.3 =.Z 7.7.7.7.7.7.7.7.7.7.7.7.7.7.7.7.7.7.7.7.7.7.7.",
"7.7.7.7.7.7.7.7.7.7.7.7.7.7.7.7.7.7.7.7.7.7.7.7.7.7.7.7.7.7.7.7.7.7.7.7.7.7.P | ; 7.7.7.7.7.7.7.7.7.7.7.7.7.7.7.7.7.7.7.7.7.7.7.",
"7.7.7.7.7.7.7.7.7.7.7.7.7.7.7.7.7.7.7.7.7.7.7.7.7.7.7.7.7.7.7.7.7.7.7.7.7.7...K 7.7.7.7.7.7.7.7.7.7.7.7.7.7.7.7.7.7.7.7.7.7.7.7.",
"7.7.7.7.7.7.7.7.7.7.7.7.7.7.7.7.7.7.7.7.7.7.7.7.7.7.7.7.7.7.7.7.7.7.7.7.7.7.=.F 7.7.7.7.7.7.7.7.7.7.7.7.7.7.7.7.7.7.7.7.7.7.7.7.",
"7.7.7.7.7.7.7.7.7.7.7.7.7.7.7.7.7.7.7.7.7.7.7.7.7.7.7.7.7.7.7.7.7.7.7.7.7.3 ..> 7.7.7.7.7.7.7.7.7.7.7.7.7.7.7.7.7.7.7.7.7.7.7.7.",
"7.7.7.7.7.7.7.7.7.7.7.7.7.7.7.7.7.7.7.7.7.7.7.7.7.7.7.7.7.7.7.7.7.7.7.7.7.F  .: 7.7.7.7.7.7.7.7.7.7.7.7.7.7.7.7.7.7.7.7.7.7.7.7.",
"7.7.7.7.7.7.7.7.7.7.7.7.7.7.7.7.7.7.7.7.7.7.7.7.7.7.7.7.7.7.7.7.7.7.7.7.7.L { - 7.7.7.7.7.7.7.7.7.7.7.7.7.7.7.7.7.7.7.7.7.7.7.7.",
"7.7.7.7.7.7.7.7.7.7.7.7.7.7.7.7.7.7.7.7.7.7.7.7.7.7.7.7.7.7.7.7.7.7.o # 2 7 4 + 7.7.7.7.7.7.7.7.7.7.7.7.7.7.7.7.7.7.7.7.7.7.7.7.",
"7.7.7.7.7.7.7.7.7.7.7.7.7.7.7.7.7.7.7.7.7.7.7.7.7.7.7.7.7.7.7.7.7.7.O # 5 6 $ o X . 7.7.7.7.7.7.7.7.7.7.7.7.7.7.7.7.7.7.7.7.7.7.",
"7.7.7.7.7.7.7.7.7.7.7.7.7.7.7.7.7.7.7.7.7.7.7.7.7.7.7.7.7.7.7.7.. X o $ 5 2 # o . . 7.7.7.7.7.7.7.7.7.7.7.7.7.7.7.7.7.7.7.7.7.7.",
"7.7.7.7.7.7.7.7.7.7.7.7.7.7.7.7.7.7.7.7.7.7.7.7.7.. X o o o o o o o o X O @ O X X . 7.7.7.7.7.7.7.7.7.7.7.7.7.7.7.7.7.7.7.7.7.7.",
"7.7.7.7.7.7.7.7.7.7.7.7.7.7.7.7.7.7.7.7.7.7.7.X o o o o O o O o O o o o o o X X X . 7.7.7.7.7.7.7.7.7.7.7.7.7.7.7.7.7.7.7.7.7.7.",
"7.7.7.7.7.7.7.7.7.7.7.7.7.7.7.7.7.7.7.7.7.X o o O O O O O O O O O o o O o o o o X X . 7.7.7.7.7.7.7.7.7.7.7.7.7.7.7.7.7.7.7.7.7.",
"7.7.7.7.7.7.7.7.7.7.7.7.7.7.7.7.7.7.7.7.o o O O o O O O O O O O O O o O o o o o o X X X   7.7.7.7.7.7.7.7.7.7.7.7.7.7.7.7.7.7.7.",
"7.7.7.7.7.7.7.7.7.7.7.7.7.7.7.7.7.7.X o O O O O O O O O O O O O O O O O O o o o o X o X X . 7.7.7.7.7.7.7.7.7.7.7.7.7.7.7.7.7.7.",
"7.7.7.7.7.7.7.7.7.7.7.7.7.7.7.7.7.X O O O O O O O O @ @ O @ @ O O O O O O o O o o o o X X X   7.7.7.7.7.7.7.7.7.7.7.7.7.7.7.7.7.",
"7.7.7.7.7.7.7.7.7.7.7.7.7.7.7.7.X o o O O O O O @ @ @ @ # @ @ @ @ O @ O O O O o o o o o X X X   7.7.7.7.7.7.7.7.7.7.7.7.7.7.7.7.",
"7.7.7.7.7.7.7.7.7.7.7.7.7.7.7.X o O O O O O @ @ @ # # # # $ # # # @ @ O O O o o O o o X o X X .   7.7.7.7.7.7.7.7.7.7.7.7.7.7.7.",
"7.7.7.7.7.7.7.7.7.7.7.7.7.7.. o o O O O O @ @ @ # $ $ , , , , $ # # # @ @ O O O o o o o o X X X . 7.7.7.7.7.7.7.7.7.7.7.7.7.7.7.",
"7.7.7.7.7.7.7.7.7.7.7.7.7.7.o O O O O O @ @ # $ $ < , < < < < < , $ # # @ O O o O o o X X X X X X . 7.7.7.7.7.7.7.7.7.7.7.7.7.7.",
"7.7.7.7.7.7.7.7.7.7.7.7.7.X o o O O O @ @ @ # $ , < 1 1 1 2 1 1 < , $ # # @ O O o o o o o o X X . . . 7.7.7.7.7.7.7.7.7.7.7.7.7.",
"7.7.7.7.7.7.7.7.7.7.7.7.7.o o O O O O @ @ # $ < 1 2 5 6 6 5 5 5 2 < , $ # @ O O o o o o o X o X X . . 7.7.7.7.7.7.7.7.7.7.7.7.7.",
"7.7.7.7.7.7.7.7.7.7.7.7.. o O o O O @ @ # $ , 1 2 5 6 7 8 7 7 5 5 1 , , $ @ @ O O O o o o o X X X . .   7.7.7.7.7.7.7.7.7.7.7.7.",
"7.7.7.7.7.7.7.7.7.7.7.7.o o O O O O @ @ # $ , 1 2 6 8 8 8 ,.8 7 6 2 1 , $ @ @ O O o o o o o X X X X .   7.7.7.7.7.7.7.7.7.7.7.7.",
"7.7.7.7.7.7.7.7.7.7.7.7.o o o O O O @ @ # $ < 2 5 7 8 ,.<.,.,.7 5 2 1 , $ # @ @ O o o o X X o X X . . . 7.7.7.7.7.7.7.7.7.7.7.7.",
"7.7.7.7.7.7.7.7.7.7.7.X o o o o O O @ # # , < 2 5 7 ,.<.<.<.,.8 7 2 1 , # # @ O O o o o o o X X X . . .   7.7.7.7.7.7.7.7.7.7.7.",
"7.7.7.7.7.7.7.7.7.7.7.X o O O O O O @ @ # , < 2 6 7 8 ,.<.,.,.8 6 5 1 , $ # # O O O o o X X o X X . . .   7.7.7.7.7.7.7.7.7.7.7.",
"7.7.7.7.7.7.7.7.7.7.7.X o o O o O O @ @ # , < 1 5 6 8 8 ,.,.8 7 5 2 1 , $ # @ O O o o o o X X X X X . .   7.7.7.7.7.7.7.7.7.7.7.",
"7.7.7.7.7.7.7.7.7.7.7.o o o o O O O @ @ # , , 1 2 5 7 8 8 7 6 5 2 1 < $ $ @ @ O o o o o o X X X X . . . . 7.7.7.7.7.7.7.7.7.7.7.",
"7.7.7.7.7.7.7.7.7.7.7.o o o o O O O O @ # $ , < 2 2 6 6 6 6 6 5 2 < , $ # @ @ O o o o o o X X X . X . .   7.7.7.7.7.7.7.7.7.7.7.",
"7.7.7.7.7.7.7.7.7.7.. X o o o O O O O @ @ # $ < 1 1 2 2 5 5 2 1 1 , $ $ # @ O O o o o o X X X X X . . . . 7.7.7.7.7.7.7.7.7.7.7.",
"7.7.7.7.7.7.7.7.7.7.7.o o o o o O O O O @ # # $ , < < 1 < 1 1 < < $ # # @ O O O o o o X o X X X . X .     7.7.7.7.7.7.7.7.7.7.7.",
"7.7.7.7.7.7.7.7.7.7.7.X X o o O o O O O @ @ # $ $ , , < , , , $ $ # # @ O O O o o o o X X X . X . . . .   7.7.7.7.7.7.7.7.7.7.7.",
"7.7.7.7.7.7.7.7.7.7.7.X X o o o O o o O O @ @ @ # # $ $ $ $ $ $ # @ @ @ O O o o X o X X X X X . X . .   . 7.7.7.7.7.7.7.7.7.7.7.",
"7.7.7.7.7.7.7.7.7.7.7.X o X o o o o O O O O @ @ @ # # # # # # # @ @ @ O O o o X o X o X X X X X . .   .   7.7.7.7.7.7.7.7.7.7.7.",
"7.7.7.7.7.7.7.7.7.7.7.X X o o o o o o O O O O O @ @ @ @ @ @ @ @ @ O o o o o o o X o X X X X . . . . .     7.7.7.7.7.7.7.7.7.7.7.",
"7.7.7.7.7.7.7.7.7.7.7.. X X o o o o o o o o O O O O O O O @ O O O O O o o o o o o X X X X X . X . .   . . 7.7.7.7.7.7.7.7.7.7.7.",
"7.7.7.7.7.7.7.7.7.7.7.. X X o X o o o o o o o O O O O O O O O O O o o o o o X o X X X X X . . . .   . . . 7.7.7.7.7.7.7.7.7.7.7.",
"7.7.7.7.7.7.7.7.7.7.7.7.. X X o o X o o o o o o o o o o o o o o o o X o X X o X X X X X X X . .   . . X 7.7.7.7.7.7.7.7.7.7.7.7.",
"7.7.7.7.7.7.7.7.7.7.7.7.. X X X o o X o o o o o o o o o o o o o o o o o o X X X X X X . . . . .   X O o 7.7.7.7.7.7.7.7.7.7.7.7.",
"7.7.7.7.7.7.7.7.7.7.7.7.7.. X X X X o o X o o X o o o o o o X o o X X o X X X X X X X X . . .   . O $ 7.7.7.7.7.7.7.7.7.7.7.7.7.",
"7.7.7.7.7.7.7.7.7.7.7.7.7.. X X X X o X X o o X o o o o o X o o X o X X X X X X X X . X . .   . X , $ 7.7.7.7.7.7.7.7.7.7.7.7.7.",
"7.7.7.7.7.7.7.7.7.7.7.7.7.7.. . . X X X X X X o X X X o o X X X X X X X X X X . . . . . . .   . # 2 7.7.7.7.7.7.7.7.7.7.7.7.7.7.",
"7.7.7.7.7.7.7.7.7.7.7.7.7.7.  . X X X X X X X X X o X X X X X X X X X X X X X . . . . . .     @ 6 , 7.7.7.7.7.7.7.7.7.7.7.7.7.7.",
"7.7.7.7.7.7.7.7.7.7.7.7.7.7.7.. . . X X X X X X X X X X X X X X X X X X . X . X . . . .     o < < 7.7.7.7.7.7.7.7.7.7.7.7.7.7.7.",
"7.7.7.7.7.7.7.7.7.7.7.7.7.7.7.7.. . . X X . X X X X X X . X X X X . X X . X . . . . .     . # $ 7.7.7.7.7.7.7.7.7.7.7.7.7.7.7.7.",
"7.7.7.7.7.7.7.7.7.7.7.7.7.7.7.7.7.  . . X . . X . X . X X X . X . X . . . . . .   .     . X O 7.7.7.7.7.7.7.7.7.7.7.7.7.7.7.7.7.",
"7.7.7.7.7.7.7.7.7.7.7.7.7.7.7.7.7.7.  . . . . . . X X . . X X . . X . . . . .           . X 7.7.7.7.7.7.7.7.7.7.7.7.7.7.7.7.7.7.",
"7.7.7.7.7.7.7.7.7.7.7.7.7.7.7.7.7.7.7.    . . . . . . . . . . . . . . . .   .         . . 7.7.7.7.7.7.7.7.7.7.7.7.7.7.7.7.7.7.7.",
"7.7.7.7.7.7.7.7.7.7.7.7.7.7.7.7.7.7.7.7.      . . . . . .   . . . .                   7.7.7.7.7.7.7.7.7.7.7.7.7.7.7.7.7.7.7.7.7.",
"7.7.7.7.7.7.7.7.7.7.7.7.7.7.7.7.7.7.7.7.7.7.                                        7.7.7.7.7.7.7.7.7.7.7.7.7.7.7.7.7.7.7.7.7.7.",
"7.7.7.7.7.7.7.7.7.7.7.7.7.7.7.7.7.7.7.7.7.7.7.7.                                7.7.7.7.7.7.7.7.7.7.7.7.7.7.7.7.7.7.7.7.7.7.7.7.",
"7.7.7.7.7.7.7.7.7.7.7.7.7.7.7.7.7.7.7.7.7.7.7.7.7.7.7.7.                7.7.7.7.7.7.7.7.7.7.7.7.7.7.7.7.7.7.7.7.7.7.7.7.7.7.7.7."
};
