/* XPM */
static char *grass[] = {
/* columns rows colors chars-per-pixel */
"64 64 7 1 ",
"  c #211F30",
". c #000000ff",
"X c #000000ff",
"o c #000000ff",
"O c #F18B72",
"+ c #F9BFA7",
"@ c None",
/* pixels */
"@@@@@@@@@@@@@@@@                                                ",
"@@@@@@@@@@@@@@@@ oOOOOO.oOOOOOOOOOOOOOO.oOOOOOOOOOOOOOO.oOOOOO+ ",
"@@@@@@@@@@@@@@@@ Xooooo.ooooooooooooooo.ooooooooooooooo.ooooooO ",
"@@@@@@@@@@@@@@@@ Xooooo.ooooooooooooooo.ooooooooooooooo.ooooooO ",
"@@@@@@@@@@@@@@@@ Xooooo ooooooooooooooo ooooooooooooooo ooooooo ",
"@@@@@@@@@@@@@@@@  ....   .............   ..   ........   .....  ",
"@@@@@@@@@@@@@@@@ .XXXXXXXXXX.ooooooooooooooo ooooooooooooooo.oO ",
"@@@@@@@@@@@@@@@@ .XXXXXXXXXX.ooooooooooooooo.ooooooooooooooo.oO ",
"@@@@@@@@@@@@@@@@ .XXXXXXXXXX.ooooooooooooooo.ooooooooooooooo.oO ",
"@@@@@@@@@@@@@@@@ .XXXXXXXXXX ooooooooooooooo ooooooooooooooo oo ",
"@@@@@@@@@@@@@@@@ .   ......   ....   ......   ....   ......   . ",
"@@@@@@@@@@@@@@@@ .X ooooooooooooooo ooooooooooooooo ooooooooooO ",
"@@@@@@@@@@@@@@@@ .X.ooooooooooooooo.ooooooooooooooo.ooooooooooO ",
"@@@@@@@@@@@@@@@@ .X.ooooooooooooooo.ooooooooooooooo.ooooooooooO ",
"@@@@@@@@@@@@@@@@ .X.ooooooooooooooo.ooooooooooooooo.ooooooooooO ",
"@@@@@@@@@@@@@@@@ .X ooooooooooooooo ooooooooooooooo ooooooooooo ",
"@@@@@@@@@@@@@@@@ .   .   .........   .............   .   ...... ",
"@@@@@@@@@@@@@@@@ .XXXXX ooooooooooooooo.ooooooooooooooo ooooooO ",
"@@@@@@@@@@@@@@@@ .XXXXX.ooooooooooooooo.ooooooooooooooo.ooooooO ",
"@@@@@@@@@@@@@@@@ .XXXXX.ooooooooooooooo.ooooooooooooooo.ooooooO ",
"@@@@@@@@@@@@@@@@ .XXXXX ooooooooooooooo ooooooooooooooo ooooooo ",
"@@@@@@@@@@@@@@@@  ....   ..   ........   ..   ........   ..   . ",
"@@@@@@@@@@@@@@@@ .XXXXXXXXXX ooooooooooooooo ooooooooooooooo oO ",
"@@@@@@@@@@@@@@@@ .XXXXXXXXXX.ooooooooooooooo.ooooooooooooooo.oO ",
"@@@@@@@@@@@@@@@@ .XXXXXXXXXX.ooooooooooooooo.ooooooooooooooo.oO ",
"@@@@@@@@@@@@@@@@ .XXXXXXXXXX ooooooooooooooo ooooooooooooooo oo ",
"@@@@@@@@@@@@@@@@ .   ......   ....   ......   ....   ......   . ",
"@@@@@@@@@@@@@@@@ .X ooooooooooooooo ooooooooooooooo ooooooooooO ",
"@@@@@@@@@@@@@@@@ .X.ooooooooooooooo.ooooooooooooooo.ooooooooooO ",
"@@@@@@@@@@@@@@@@ .X.ooooooooooooooo.ooooooooooooooo.ooooooooooO ",
"@@@@@@@@@@@@@@@@ .X.ooooooooooooooo.ooooooooooooooo.ooooooooooO ",
"@@@@@@@@@@@@@@@@ .X ooooooooooooooo ooooooooooooooo ooooooooooo ",
"@@@@@@@@@@@@@@@@ .   .............   .   .........   .......... ",
"@@@@@@@@@@@@@@@@ .XXXXX.ooooooooooooooo ooooooooooooooo.ooooooO ",
"@@@@@@@@@@@@@@@@ .XXXXX.ooooooooooooooo.ooooooooooooooo.ooooooO ",
"@@@@@@@@@@@@@@@@ .XXXXX.ooooooooooooooo.ooooooooooooooo.ooooooO ",
"@@@@@@@@@@@@@@@@ .XXXXX ooooooooooooooo ooooooooooooooo ooooooo ",
"@@@@@@@@@@@@@@@@  ....   ..   ........   .............   ..   . ",
"@@@@@@@@@@@@@@@@ .XXXXXXXXXX ooooooooooooooo.ooooooooooooooo oO ",
"@@@@@@@@@@@@@@@@ .XXXXXXXXXX.ooooooooooooooo.ooooooooooooooo.oO ",
"@@@@@@@@@@@@@@@@ .XXXXXXXXXX.ooooooooooooooo.ooooooooooooooo.oO ",
"@@@@@@@@@@@@@@@@ .XXXXXXXXXX ooooooooooooooo ooooooooooooooo oo ",
"@@@@@@@@@@@@@@@@ .   ......   ....   ......   ....   ......   . ",
"@@@@@@@@@@@@@@@@ .X XXXXXXXXXXXXXXX XXXXXXXXXXXXXXX XXXXXXXXXXO ",
"@@@@@@@@@@@@@@@@ .X.XXXXXXXXXXXXXXX.XXXXXXXXXXXXXXX.XXXXXXXXXXO ",
"@@@@@@@@@@@@@@@@ .X.XXXXXXXXXXXXXXX.XXXXXXXXXXXXXXX.XXXXXXXXXXO ",
"@@@@@@@@@@@@@@@@ .............................................X ",
"@@@@@@@@@@@@@@@@                                                ",
"@@@@@@@@@@@@@@@@@@@@@@@@@@@@@@@@@@@@@@@@@@@@@@@@@@@@@@@@@@@@@@@@",
"@@@@@@@@@@@@@@@@@@@@@@@@@@@@@@@@@@@@@@@@@@@@@@@@@@@@@@@@@@@@@@@@",
"@@@@@@@@@@@@@@@@@@@@@@@@@@@@@@@@@@@@@@@@@@@@@@@@@@@@@@@@@@@@@@@@",
"@@@@@@@@@@@@@@@@@@@@@@@@@@@@@@@@@@@@@@@@@@@@@@@@@@@@@@@@@@@@@@@@",
"@@@@@@@@@@@@@@@@@@@@@@@@@@@@@@@@@@@@@@@@@@@@@@@@@@@@@@@@@@@@@@@@",
"@@@@@@@@@@@@@@@@@@@@@@@@@@@@@@@@@@@@@@@@@@@@@@@@@@@@@@@@@@@@@@@@",
"@@@@@@@@@@@@@@@@@@@@@@@@@@@@@@@@@@@@@@@@@@@@@@@@@@@@@@@@@@@@@@@@",
"@@@@@@@@@@@@@@@@@@@@@@@@@@@@@@@@@@@@@@@@@@@@@@@@@@@@@@@@@@@@@@@@",
"@@@@@@@@@@@@@@@@@@@@@@@@@@@@@@@@@@@@@@@@@@@@@@@@@@@@@@@@@@@@@@@@",
"@@@@@@@@@@@@@@@@@@@@@@@@@@@@@@@@@@@@@@@@@@@@@@@@@@@@@@@@@@@@@@@@",
"@@@@@@@@@@@@@@@@@@@@@@@@@@@@@@@@@@@@@@@@@@@@@@@@@@@@@@@@@@@@@@@@",
"@@@@@@@@@@@@@@@@@@@@@@@@@@@@@@@@@@@@@@@@@@@@@@@@@@@@@@@@@@@@@@@@",
"@@@@@@@@@@@@@@@@@@@@@@@@@@@@@@@@@@@@@@@@@@@@@@@@@@@@@@@@@@@@@@@@",
"@@@@@@@@@@@@@@@@@@@@@@@@@@@@@@@@@@@@@@@@@@@@@@@@@@@@@@@@@@@@@@@@",
"@@@@@@@@@@@@@@@@@@@@@@@@@@@@@@@@@@@@@@@@@@@@@@@@@@@@@@@@@@@@@@@@",
"@@@@@@@@@@@@@@@@@@@@@@@@@@@@@@@@@@@@@@@@@@@@@@@@@@@@@@@@@@@@@@@@"
};
