/* XPM */
static char *exit[] = {
/* columns rows colors chars-per-pixel */
"32 32 9 1 ",
"  c #211F30",
". c #076029",
"X c #D2612F",
"o c #28860F",
"O c #72A11D",
"+ c #E68D41",
"@ c #F2BC7E",
"# c #A4CC42",
"$ c None",
/* pixels */
"$$$$$$$$$$$$$$$$$$$$$$$$$$$$$$$$",
"$$$$$$$$$$$$$$$$$$$$$$$$$$$$$$$$",
"$$$$$$$$$$$$$$$$$$$$$$$$$$$$$$$$",
"$$$$$$$$$$$$$$$$$$$$$$$$$$$$$$$$",
"$$$$$$$$$$$$$$$$$$$$$$$$$$$$$$$$",
"$$$$$$$$$$$$$$$$$$$$$$$$$$$$$$$$",
"$$$$$$$$$$$$$$$$$$$$$$$$$$$$$$$$",
"$$$$$$$$$$$$$$$$$$$$$$$$$$$$$$$$",
"$$$$$$$$$$$$$$$  $$$$$$$$$$$$$$$",
"$$$$$$$$$$$$   O#   $$$$$$$$$$$$",
"$$$$$$$$$$$$ o.OO.o $$$$$$$$$$$$",
"$$$$$$$$$$$$ oOOOOo $$$$$$$$$$$$",
"$$$$$$$$$$$$$ .oo. $$$$$$$$$$$$$",
"$$$$$$$$$$$$ XXXXXX $$$$$$$$$$$$",
"$$$$$$$$$$$ X++++++X $$$$$$$$$$$",
"$$$$$$$$$$$ +++XX+++ $$$$$$$$$$$",
"$$$$$$$$$$ +XX++@XXX+ $$$$$$$$$$",
"$$$$$$$$$$ +++++++@@+ $$$$$$$$$$",
"$$$$$$$$$$ X+++XX+@@X $$$$$$$$$$",
"$$$$$$$$$$ +XXX+++XX+ $$$$$$$$$$",
"$$$$$$$$$$ +++++@++++ $$$$$$$$$$",
"$$$$$$$$$$ X++XXXX++X $$$$$$$$$$",
"$$$$$$$$$$ XXXXXXXXXX $$$$$$$$$$",
"$$$$$$$$$$$ XXXXXXXX $$$$$$$$$$$",
"$$$$$$$$$$$$        $$$$$$$$$$$$",
"$$$$$$$$$$$$$$$$$$$$$$$$$$$$$$$$",
"$$$$$$$$$$$$$$$$$$$$$$$$$$$$$$$$",
"$$$$$$$$$$$$$$$$$$$$$$$$$$$$$$$$",
"$$$$$$$$$$$$$$$$$$$$$$$$$$$$$$$$",
"$$$$$$$$$$$$$$$$$$$$$$$$$$$$$$$$",
"$$$$$$$$$$$$$$$$$$$$$$$$$$$$$$$$",
"$$$$$$$$$$$$$$$$$$$$$$$$$$$$$$$$"
};
